<?xml version="1.0" standalone="no"?>
<!DOCTYPE svg PUBLIC "-//W3C//DTD SVG 20010904//EN"
 "http://www.w3.org/TR/2001/REC-SVG-20010904/DTD/svg10.dtd">
<svg version="1.0" xmlns="http://www.w3.org/2000/svg"
 width="260.000000pt" height="194.000000pt" viewBox="0 0 260.000000 194.000000"
 preserveAspectRatio="xMidYMid meet">

<g transform="translate(0.000000,194.000000) scale(0.100000,-0.100000)"
fill="#000000" stroke="none">
<path d="M525 1930 c4 -6 11 -8 16 -5 5 4 9 1 9 -4 0 -23 2 -26 22 -34 14 -5
24 -3 30 5 6 10 8 10 8 1 0 -7 7 -10 15 -7 8 4 15 14 14 23 0 11 -2 12 -6 3
-4 -10 -8 -10 -19 -1 -11 9 -15 8 -20 -5 -5 -13 -8 -13 -20 -1 -8 7 -14 18
-14 24 0 6 -9 11 -21 11 -11 0 -17 -5 -14 -10z"/>
<path d="M902 1928 c-7 -7 -12 -17 -12 -22 0 -6 5 -4 10 4 8 12 9 10 7 -7 -2
-12 -7 -26 -12 -30 -4 -5 -5 -2 -1 5 4 7 1 12 -8 12 -9 0 -16 -9 -16 -20 0
-14 7 -20 21 -20 11 0 17 -4 14 -10 -3 -5 -1 -10 4 -10 6 0 11 5 11 11 0 5 5
7 10 4 6 -4 7 -11 4 -17 -5 -8 -1 -9 10 -5 10 4 22 7 27 7 5 0 8 6 7 13 -2 6
3 11 10 10 19 -4 14 15 -5 20 -16 4 -16 5 -1 6 24 1 31 -15 17 -41 -11 -21
-11 -22 4 -9 13 10 17 10 17 1 0 -9 3 -10 13 -1 8 6 17 8 21 4 4 -4 4 1 0 11
-6 16 -4 18 19 12 21 -5 25 -3 21 9 -4 11 -2 13 9 9 12 -4 14 -1 10 15 -4 16
2 24 23 33 26 12 20 13 -68 16 -60 2 -106 -2 -119 -9 -15 -8 -19 -8 -15 0 10
15 -17 14 -32 -1z m208 -2 c0 -2 -9 -6 -20 -9 -11 -3 -20 -1 -20 4 0 5 9 9 20
9 11 0 20 -2 20 -4z"/>
<path d="M1528 1931 c-5 -11 -97 -50 -101 -43 -2 4 -2 2 -1 -5 2 -6 -2 -13 -7
-15 -6 -2 -7 -12 -3 -22 5 -14 9 -15 15 -4 7 10 11 11 17 0 10 -15 62 0 62 18
0 6 5 8 10 5 6 -3 10 -2 10 3 0 5 9 12 21 15 13 3 19 1 16 -6 -3 -7 -9 -11
-15 -10 -6 2 -10 -6 -9 -17 1 -14 4 -16 14 -8 9 7 13 7 13 -1 0 -7 9 -9 24 -5
13 3 27 1 30 -5 9 -13 36 -3 36 14 0 8 -11 12 -30 11 -16 -1 -30 1 -30 6 0 4
-4 8 -10 8 -5 0 -7 -8 -3 -17 4 -14 3 -15 -6 -7 -6 6 -9 18 -5 27 4 12 11 14
29 7 16 -6 25 -5 29 3 3 9 5 9 5 0 1 -7 6 -13 13 -13 6 0 8 3 5 7 -4 3 -2 12
4 19 8 10 7 18 -5 29 -12 12 -16 13 -16 3 0 -8 -3 -9 -8 -3 -8 11 -99 17 -104
6z"/>
<path d="M1680 1924 c0 -8 5 -12 10 -9 6 4 8 11 5 16 -9 14 -15 11 -15 -7z"/>
<path d="M1711 1926 c-4 -6 -11 -23 -15 -37 l-6 -27 30 28 c26 25 35 27 61 20
26 -8 30 -7 25 6 -3 9 -1 12 4 9 6 -3 10 -1 10 5 0 14 -97 10 -109 -4z"/>
<path d="M1940 1920 c23 -19 23 -20 3 -10 -13 6 -23 7 -23 3 0 -4 -5 -1 -10 7
-7 11 -10 11 -10 2 0 -7 -4 -10 -10 -7 -24 15 -54 13 -66 -3 -7 -9 -31 -21
-55 -27 -35 -9 -42 -15 -45 -37 -2 -21 2 -27 22 -31 18 -3 24 -1 20 9 -6 17
12 18 50 4 19 -8 29 -8 34 0 5 7 11 6 19 -4 9 -11 19 -12 36 -6 13 5 25 7 28
4 10 -10 127 -12 127 -2 0 5 15 8 36 5 25 -4 37 -1 41 9 4 11 9 12 19 3 8 -6
21 -9 29 -5 8 3 15 1 15 -5 0 -6 5 -7 10 -4 6 3 10 -1 10 -10 0 -11 5 -15 15
-12 18 7 30 -9 13 -17 -7 -3 -2 -4 12 -3 15 1 29 11 35 25 12 27 17 27 35 3
13 -19 15 -19 28 -3 7 9 11 12 8 6 -3 -7 1 -17 8 -24 17 -13 56 2 56 23 0 7 3
8 8 2 4 -5 16 -12 27 -13 10 -2 24 -11 31 -19 7 -10 19 -14 32 -10 33 8 37
-11 8 -34 -21 -16 -26 -29 -26 -62 l0 -42 45 0 c30 -1 45 3 45 12 0 9 -14 13
-41 13 -26 0 -38 4 -34 11 4 6 13 8 20 5 8 -3 16 3 18 12 4 15 5 14 6 -2 1
-15 4 -16 16 -6 11 9 15 35 15 106 0 91 -1 94 -22 93 -13 0 -17 -3 -10 -6 6
-2 12 -10 12 -16 0 -8 -3 -8 -12 1 -9 9 -15 9 -26 -1 -13 -11 -14 -9 -1 11 8
12 24 25 37 28 13 4 22 14 22 25 0 18 -9 19 -120 19 -109 0 -119 -1 -113 -17
6 -17 5 -17 -14 0 -27 24 -140 21 -134 -3 2 -8 6 -28 9 -45 5 -27 4 -28 -12
-13 -9 10 -13 23 -9 34 4 12 3 15 -6 10 -7 -4 -20 2 -31 16 -11 13 -19 17 -20
11 0 -15 -48 -17 -69 -4 -16 10 -44 3 -36 -9 3 -4 -4 -10 -15 -13 -11 -3 -20
-1 -20 4 0 17 -17 9 -28 -13 -10 -22 -10 -21 -9 7 2 26 -2 30 -28 33 l-30 3
25 -21z m527 -24 c36 5 37 5 18 -10 -11 -8 -32 -16 -47 -16 -14 0 -28 -5 -30
-12 -5 -14 -38 -3 -38 13 0 6 7 8 16 5 13 -5 14 -4 6 7 -7 8 -24 12 -40 9 -18
-2 -33 2 -41 12 -12 14 -11 16 5 16 11 0 25 -4 33 -9 18 -11 52 -2 45 13 -3 6
3 1 14 -12 17 -18 27 -21 59 -16z m118 -176 c-3 -5 -14 -10 -23 -10 -15 0 -15
2 -2 10 20 13 33 13 25 0z"/>
<path d="M230 1923 c0 -5 7 -17 15 -27 21 -27 19 -35 -7 -28 -22 5 -22 4 -7
-14 9 -10 19 -28 23 -40 5 -16 14 -21 44 -21 20 0 52 -3 71 -7 31 -8 34 -7 28
13 -4 18 -3 20 9 10 10 -8 14 -8 14 0 0 6 6 11 14 11 15 0 30 45 20 61 -3 6
-15 9 -25 6 -11 -3 -19 0 -20 6 -1 7 -4 3 -8 -8 -19 -51 -36 -85 -43 -85 -15
0 -47 39 -54 65 -8 34 -75 86 -74 58z"/>
<path d="M1364 1876 c1 -20 4 -22 16 -13 8 6 17 12 18 13 2 1 -5 7 -16 13 -17
9 -20 7 -18 -13z"/>
<path d="M40 1861 c0 -12 -6 -21 -14 -21 -16 0 -26 -30 -26 -82 l0 -38 53 -1
52 -2 -40 -7 c-22 -4 -33 -8 -25 -9 8 -1 32 -4 53 -7 l39 -6 -2 39 c-4 59 -2
63 29 63 27 0 29 3 28 34 -1 19 -4 32 -6 30 -2 -2 -10 4 -17 14 -13 16 -13 16
-14 -2 0 -13 -5 -16 -17 -11 -10 4 -27 8 -38 10 -11 1 -28 6 -37 10 -14 5 -18
2 -18 -14z m40 -21 c-11 -7 -3 -40 13 -51 13 -9 0 -42 -12 -34 -6 3 -8 12 -5
19 3 8 0 17 -5 21 -6 3 -9 11 -6 16 4 5 -1 9 -9 9 -13 0 -14 3 -4 19 6 10 18
17 26 14 9 -4 10 -8 2 -13z m-49 -43 c-1 -12 -15 -9 -19 4 -3 6 1 10 8 8 6 -3
11 -8 11 -12z"/>
<path d="M536 1872 c-7 -11 5 -27 33 -42 19 -10 25 -10 32 1 7 11 9 11 9 1 0
-8 5 -10 12 -6 8 5 5 11 -10 17 -12 6 -22 14 -22 19 0 4 -7 8 -15 8 -8 0 -15
-4 -15 -10 0 -5 5 -10 12 -10 6 0 8 -3 5 -6 -9 -9 -38 16 -31 27 3 5 3 9 0 9
-3 0 -7 -4 -10 -8z"/>
<path d="M1245 1790 c-3 -6 1 -7 9 -4 18 7 21 14 7 14 -6 0 -13 -4 -16 -10z"/>
<path d="M1388 1783 c6 -2 18 -2 25 0 6 3 1 5 -13 5 -14 0 -19 -2 -12 -5z"/>
<path d="M481 1767 c-9 -12 -7 -16 14 -19 20 -4 25 -2 23 10 -4 21 -23 26 -37
9z"/>
<path d="M1115 1770 c-16 -4 -26 -8 -21 -9 5 0 2 -9 -5 -18 -11 -15 -10 -14 9
1 12 11 22 16 22 11 0 -4 7 -2 15 5 13 11 15 7 15 -28 0 -48 15 -63 24 -26 5
17 1 35 -9 50 -8 13 -16 23 -18 23 -1 -1 -15 -5 -32 -9z"/>
<path d="M1730 1769 c0 -5 5 -7 10 -4 6 3 10 8 10 11 0 2 -4 4 -10 4 -5 0 -10
-5 -10 -11z"/>
<path d="M246 1755 c-8 -23 -8 -25 8 -25 8 0 13 7 12 15 -3 23 -13 27 -20 10z"/>
<path d="M427 1755 c-8 -8 -18 -11 -21 -8 -8 9 -3 -29 7 -44 4 -6 8 -22 9 -35
3 -33 26 -55 34 -34 3 9 10 14 14 11 12 -7 22 28 14 48 -3 9 -12 13 -20 10
-20 -7 -17 14 4 26 16 10 16 10 0 11 -11 0 -15 5 -12 15 8 19 -10 19 -29 0z"/>
<path d="M543 1758 c10 -5 15 -13 12 -19 -4 -5 -4 -9 -1 -9 3 0 10 8 15 18 7
14 5 17 -17 19 -22 1 -23 0 -9 -9z"/>
<path d="M688 1747 c10 -11 25 -17 39 -14 20 4 23 0 23 -30 0 -26 4 -34 14
-30 8 3 13 -1 12 -11 -1 -22 -25 -31 -56 -22 -14 4 -32 6 -41 5 -9 -2 -16 3
-16 11 0 7 5 10 10 7 5 -3 13 1 18 8 7 11 9 10 9 -4 0 -10 4 -16 9 -13 5 4 8
14 6 24 -2 9 -4 24 -4 32 -1 13 -2 13 -11 0 -5 -8 -10 -11 -10 -6 0 6 -7 1
-16 -10 -11 -14 -17 -16 -21 -6 -4 10 -8 10 -19 1 -11 -9 -14 -8 -14 5 0 9 -4
16 -9 16 -5 0 -8 -12 -5 -27 4 -27 4 -27 -11 -8 -9 11 -13 25 -11 32 3 7 0 13
-7 13 -17 0 -36 -20 -33 -34 2 -6 1 -8 -1 -3 -3 4 -11 7 -19 7 -10 0 -12 -4
-7 -12 4 -7 8 -24 9 -38 0 -14 2 -30 5 -35 3 -6 5 -28 4 -50 0 -24 6 -45 15
-52 8 -6 11 -15 7 -19 -4 -5 -12 -3 -16 4 -10 17 -44 4 -37 -14 3 -8 1 -14 -3
-14 -5 0 -12 7 -15 16 -3 8 -11 12 -17 8 -8 -4 -7 -9 2 -15 12 -8 12 -10 0
-18 -8 -5 -10 -14 -5 -22 5 -9 -3 -7 -20 5 -26 16 -28 17 -23 2 4 -11 3 -15
-4 -11 -5 4 -30 7 -54 7 -25 0 -43 3 -40 8 3 4 -4 10 -15 13 -15 4 -24 -3 -36
-29 -9 -19 -21 -31 -26 -28 -5 3 -8 -2 -6 -11 2 -10 -3 -20 -11 -23 -9 -3 -11
1 -6 17 5 15 2 21 -9 21 -17 0 -18 -1 -20 -43 -1 -16 -8 -32 -16 -37 -12 -7
-10 -11 10 -19 18 -7 20 -10 8 -10 -10 -1 -18 -6 -18 -12 0 -5 -4 -8 -9 -5 -5
3 -12 -1 -15 -10 -9 -23 -8 -24 12 -18 14 5 15 4 2 -5 -8 -6 -24 -11 -34 -11
-20 0 -20 0 0 -15 16 -13 16 -14 2 -9 -14 5 -18 1 -18 -20 0 -14 4 -26 9 -26
5 0 7 -8 4 -19 -3 -11 2 -21 12 -25 19 -7 35 0 35 15 0 16 27 40 42 37 8 -2
14 9 16 29 2 25 7 31 19 26 10 -4 14 -2 10 4 -4 6 -2 13 5 15 6 2 13 14 14 26
9 58 15 64 64 56 40 -6 67 14 56 41 -3 8 -1 15 4 15 6 0 10 8 11 18 0 10 3 12
6 4 2 -6 8 -10 13 -7 4 3 7 -3 6 -12 0 -9 5 -18 13 -21 9 -3 11 1 6 17 -4 12
-2 21 4 21 25 0 52 20 44 33 -9 15 10 6 27 -13 17 -19 17 -19 17 13 1 26 -1
28 -7 12 -8 -19 -9 -19 -9 3 -1 13 5 22 14 22 8 0 15 -6 15 -14 0 -7 7 -27 15
-42 9 -18 15 -23 15 -12 0 9 5 20 12 24 7 4 8 3 4 -4 -4 -6 -1 -24 7 -39 14
-27 15 -27 22 -4 4 12 12 20 19 18 7 -3 18 4 25 15 7 11 19 17 27 14 8 -3 14
-1 14 4 0 5 -8 11 -18 15 -20 6 -48 55 -33 55 5 0 12 -6 14 -12 4 -10 8 -9 17
2 10 12 11 11 7 -8 -3 -12 -1 -20 4 -16 18 11 28 -6 19 -30 -5 -14 -5 -36 0
-53 5 -17 9 -21 9 -10 1 10 6 15 12 12 6 -4 8 -14 4 -23 -5 -13 -2 -12 15 3
11 10 20 13 20 7 0 -7 7 -12 16 -12 9 0 12 5 8 12 -5 7 -3 8 5 4 9 -6 8 -13
-5 -27 -13 -15 -15 -22 -6 -31 9 -9 16 -7 28 8 12 14 14 15 11 3 -4 -13 -1
-15 14 -12 12 4 19 14 19 30 0 22 2 23 15 13 8 -7 13 -23 11 -36 -3 -13 0 -27
6 -30 7 -4 8 -2 4 4 -5 8 3 11 24 8 25 -3 30 0 25 12 -5 13 -2 12 14 -2 20
-18 21 -18 29 5 l9 23 6 -26 c5 -20 13 -26 32 -24 24 1 37 16 14 16 -5 0 -7 5
-3 11 15 25 37 -42 25 -75 -5 -14 -10 -16 -15 -8 -4 7 -17 10 -32 6 -14 -4
-24 -2 -23 2 3 19 -1 34 -10 34 -6 0 -8 -30 -5 -72 9 -143 9 -168 -1 -168 -5
0 -2 -7 8 -14 14 -11 15 -15 5 -19 -10 -4 -10 -8 2 -16 12 -8 11 -11 -5 -16
-45 -15 -65 -29 -60 -43 3 -7 5 -47 5 -88 0 -71 1 -74 24 -74 13 0 27 7 30 16
3 8 10 13 15 10 5 -3 14 1 21 9 16 19 34 19 77 -2 33 -15 37 -15 48 0 7 9 15
14 19 10 4 -4 4 0 0 10 -5 15 -18 17 -73 16 -109 -2 -108 -2 -113 31 -5 30 6
52 14 29 3 -8 9 -7 19 3 19 19 85 36 75 19 -9 -15 41 -14 100 0 25 6 47 9 50
6 12 -12 11 -79 -2 -84 -7 -2 -11 -13 -9 -23 2 -10 -4 -25 -13 -32 -13 -11
-15 -11 -7 2 8 13 6 13 -8 2 -9 -8 -20 -11 -26 -8 -5 3 -7 -3 -4 -13 3 -13 10
-18 21 -14 12 5 14 1 10 -15 -9 -31 -1 -27 18 10 24 45 38 58 63 51 11 -3 29
-2 38 2 10 4 39 9 65 10 39 1 49 -2 54 -17 4 -15 16 -18 70 -18 57 0 64 -2 64
-19 0 -11 7 -27 16 -36 13 -12 14 -19 5 -28 -9 -9 -14 -8 -21 3 -8 13 -10 12
-10 -2 0 -10 -5 -18 -11 -18 -5 0 -7 4 -4 10 3 5 1 10 -4 10 -6 0 -11 -4 -11
-9 0 -17 18 -21 46 -11 15 6 30 8 33 4 3 -4 0 -9 -6 -11 -18 -6 -16 -23 2 -23
8 0 15 5 15 10 0 7 5 6 13 -1 7 -7 11 -25 9 -40 -6 -40 37 -67 80 -51 34 12
48 8 48 -14 0 -8 5 -14 10 -14 15 0 12 7 -12 40 -12 17 -31 31 -42 31 -17 1
-18 2 -3 6 9 2 24 18 33 35 9 17 11 27 6 24 -15 -9 -23 9 -15 29 5 16 17 17
102 11 78 -5 100 -11 118 -28 26 -25 30 -58 7 -58 -14 0 -14 -1 0 -16 9 -8 16
-24 16 -35 0 -14 7 -19 30 -19 34 0 39 16 13 37 -17 13 -16 14 7 10 14 -2 32
-6 40 -8 12 -3 16 10 20 64 l5 67 -37 0 c-20 0 -39 4 -43 10 -3 5 -12 7 -19 4
-12 -5 -12 2 -3 37 8 32 7 44 -1 47 -7 2 -10 8 -7 13 4 5 -1 6 -9 3 -10 -4
-17 2 -22 20 -5 19 -10 23 -22 16 -10 -5 -25 -11 -35 -14 -11 -3 -21 -15 -24
-26 -4 -16 -11 -19 -27 -14 -11 3 -25 10 -30 15 -17 16 -49 11 -42 -7 3 -9 6
-20 6 -25 0 -5 7 -9 15 -9 8 0 15 -4 15 -8 0 -5 -12 -7 -28 -4 -29 4 -55 43
-45 68 3 8 1 14 -5 14 -6 0 -17 3 -26 6 -19 7 -22 -29 -6 -71 9 -24 8 -26 -10
-20 -14 5 -20 2 -20 -9 0 -25 -24 -18 -37 10 -10 22 -10 25 3 20 11 -4 14 6
16 47 0 29 0 59 -1 67 -1 8 -3 25 -4 37 -2 26 -17 32 -17 7 0 -9 -6 -14 -12
-12 -9 3 -14 38 -16 116 -2 97 -1 111 13 106 8 -3 15 -1 15 5 0 6 -6 11 -14
11 -10 0 -13 17 -13 69 1 56 4 68 14 59 7 -6 14 -7 14 -2 6 39 5 54 -3 54 -5
0 -7 4 -3 10 3 5 12 7 20 4 10 -4 13 -18 9 -57 -4 -39 -3 -48 5 -37 9 12 11
11 11 -8 0 -14 4 -21 11 -16 6 3 8 17 5 30 -10 37 18 30 38 -8 8 -18 16 -31
17 -28 6 34 6 39 -3 34 -6 -4 -8 1 -6 11 4 25 38 29 38 4 0 -10 5 -19 11 -19
6 0 8 7 5 15 -3 8 -9 23 -13 32 -5 12 -2 15 10 10 10 -4 20 0 26 11 9 14 10
13 11 -9 0 -32 30 -63 30 -33 0 14 2 16 9 6 6 -10 10 -8 14 8 3 12 10 19 16
15 13 -8 37 14 44 41 4 17 5 17 6 -3 1 -27 17 -38 25 -18 3 8 1 17 -4 20 -6 4
-10 15 -10 25 0 29 -19 34 -29 8 -9 -20 -10 -19 -10 15 -1 20 -5 37 -10 37 -5
0 -14 14 -21 30 -17 42 -35 51 -27 14 3 -16 4 -23 1 -16 -5 10 -11 9 -28 -7
-25 -24 -69 -19 -64 8 2 9 7 14 12 11 5 -3 12 5 17 17 9 24 49 51 49 33 0 -8
6 -8 17 -1 13 7 23 5 36 -7 17 -15 18 -14 24 6 6 26 7 26 32 10 19 -12 17 -43
-8 -85 -10 -17 -10 -17 -11 0 0 11 -5 15 -11 11 -7 -4 -5 -12 6 -23 13 -12 19
-13 22 -4 3 7 13 23 23 35 l19 23 1 -47 c0 -28 -5 -48 -12 -51 -10 -4 -9 -8 2
-16 10 -7 16 -7 18 0 3 6 8 6 15 0 9 -7 12 -2 13 17 0 15 4 36 9 47 8 18 7 19
-8 6 -20 -16 -23 -8 -3 11 11 12 11 17 -1 34 -15 18 -15 18 -8 -3 4 -14 2 -23
-4 -23 -6 0 -11 11 -11 24 0 13 -6 27 -12 29 -10 4 -10 6 0 6 7 1 10 7 7 14
-4 6 4 0 17 -14 13 -14 32 -28 41 -32 12 -4 17 -18 17 -42 0 -19 4 -35 10 -35
16 0 1 69 -20 90 -12 12 -18 25 -14 31 3 6 -2 17 -12 25 -11 9 -14 13 -9 10 6
-2 12 5 12 16 2 16 -1 18 -10 9 -17 -17 -43 -15 -28 2 6 8 8 16 5 20 -3 3 4 3
16 0 19 -5 21 -3 15 16 -3 11 -2 21 3 21 5 0 7 11 4 25 -3 18 0 25 12 25 9 0
16 5 16 10 0 20 -31 9 -42 -15 -6 -14 -15 -25 -20 -25 -5 0 -6 5 -2 11 3 6 -8
3 -26 -6 -18 -9 -29 -12 -26 -6 4 6 3 11 -2 11 -10 0 -22 -23 -22 -41 0 -6 6
-7 13 -3 8 5 7 2 -2 -10 -8 -9 -20 -15 -28 -12 -7 3 -13 1 -13 -4 0 -6 -5 -10
-11 -10 -7 0 -9 9 -5 24 5 21 2 24 -19 22 -21 -1 -23 -3 -10 -12 20 -15 19
-26 -4 -46 -18 -15 -19 -15 -26 19 -5 29 -2 38 19 58 14 13 26 29 26 35 0 7
-5 6 -14 -2 -8 -7 -12 -15 -10 -17 6 -6 -47 -44 -53 -37 -4 3 -1 17 5 31 9 20
9 25 -2 25 -8 0 -17 6 -19 13 -3 6 -5 1 -4 -13 2 -52 -3 -81 -13 -75 -5 3 -10
1 -10 -6 0 -8 -4 -8 -15 1 -14 11 -14 10 -6 -14 6 -14 8 -26 4 -26 -4 0 4 -11
16 -24 l23 -25 -21 -27 c-17 -21 -19 -29 -9 -37 9 -6 5 -7 -11 -4 -21 5 -23 3
-17 -24 3 -18 2 -28 -4 -24 -6 3 -7 -1 -4 -10 4 -10 -1 -21 -12 -30 -19 -14
-39 -10 -29 5 3 5 -6 20 -20 34 -23 23 -36 74 -16 62 11 -7 23 22 14 36 -3 6
-1 8 5 4 17 -10 30 45 19 86 -8 34 -11 36 -30 27 -16 -9 -17 -13 -6 -20 11 -7
10 -9 -3 -9 -10 0 -18 7 -18 15 0 8 5 15 11 15 6 0 8 7 5 16 -3 9 -2 12 5 9
11 -8 59 21 59 35 0 5 -10 6 -22 3 -13 -3 -33 -5 -45 -6 -12 -1 -21 -3 -21 -6
2 -27 -5 -41 -21 -41 -11 0 -22 -8 -24 -17 -3 -10 -6 -2 -7 17 l-2 35 -8 -30
c-6 -24 -8 -26 -9 -7 -2 43 -35 20 -65 -47 -11 -22 -23 -41 -28 -41 -4 0 -8
-9 -8 -20 0 -18 3 -19 20 -10 23 12 27 -2 6 -19 -8 -7 -17 -30 -21 -52 -4 -21
-12 -39 -18 -39 -13 0 -22 -90 -10 -99 5 -3 13 -16 20 -27 13 -24 0 -46 -23
-37 -8 3 -14 0 -14 -7 0 -6 9 -14 20 -17 21 -6 27 -28 10 -38 -5 -3 -16 -3
-22 2 -7 4 -28 8 -45 10 -30 2 -33 -1 -33 -28 0 -16 -4 -29 -10 -29 -5 0 -10
-5 -10 -11 0 -5 4 -8 9 -4 6 3 8 -7 7 -22 -2 -16 -4 -34 -5 -40 0 -7 -10 -13
-21 -13 -11 0 -20 -4 -20 -10 0 -5 14 -7 33 -4 24 4 28 3 17 -5 -10 -7 -14
-25 -12 -60 1 -28 -3 -51 -8 -51 -6 0 -10 6 -10 13 -1 7 -7 4 -15 -7 -14 -18
-14 -18 -13 0 0 16 -5 101 -17 277 -2 36 -14 63 -16 39 -1 -7 -2 -18 -3 -24
-1 -7 -12 -12 -25 -10 -13 1 -30 -3 -37 -9 -16 -13 -29 9 -21 38 4 14 5 13 6
-4 0 -13 3 -23 5 -23 11 0 55 28 51 32 -3 3 1 11 10 18 8 7 15 20 15 30 0 15
18 30 36 30 2 0 1 -12 -2 -27 l-7 -28 22 23 c30 30 41 28 41 -10 1 -27 2 -30
11 -16 11 19 -4 58 -22 58 -5 0 1 10 14 23 18 17 23 31 22 62 -2 22 0 43 2 48
6 10 33 -18 33 -34 0 -7 6 -5 14 6 7 10 12 26 11 34 -2 9 -4 24 -4 34 -1 10
-5 15 -11 12 -5 -3 -10 -1 -10 6 0 18 -17 -1 -24 -26 -3 -11 -3 6 0 38 4 40 2
57 -6 57 -8 0 -10 10 -7 26 2 14 -2 31 -9 39 -11 10 -12 20 -4 41 6 15 8 29 5
32 -3 3 -5 0 -5 -7 0 -8 -8 -10 -22 -6 -20 5 -21 4 -6 -7 16 -11 15 -14 -10
-30 l-27 -18 26 0 c15 0 31 -6 37 -13 18 -21 -3 -41 -42 -40 -21 1 -37 -4 -40
-13 -7 -19 -32 -18 -40 1 -3 8 -14 15 -24 15 -11 0 -25 -7 -32 -15 -7 -8 -19
-15 -27 -15 -13 0 -13 -3 -2 -16 27 -32 9 -88 -22 -68 -5 3 -9 0 -9 -5 0 -6 6
-11 14 -11 20 0 27 -13 14 -30 -8 -12 -9 -12 -4 3 3 9 1 17 -5 17 -10 0 -32
-50 -25 -57 3 -3 0 -10 -5 -17 -56 -67 -61 -71 -54 -49 5 19 3 21 -25 17 l-30
-5 0 56 c0 56 1 57 25 51 23 -6 25 -4 25 28 0 47 17 54 33 14 11 -27 14 -29
20 -15 4 12 3 16 -4 12 -6 -4 -10 -1 -8 6 3 27 -1 39 -13 37 -9 -2 -13 9 -13
32 0 30 -4 35 -23 37 -16 1 -22 -4 -20 -16 3 -16 -3 -21 -23 -21 -8 0 -8 4 1
15 6 8 9 19 5 25 -3 5 1 13 9 16 8 3 18 15 21 25 5 16 10 18 21 8 11 -9 14 -8
14 5 0 9 -8 16 -20 16 -11 0 -20 4 -20 8 0 5 -7 9 -15 9 -13 0 -13 -3 2 -19 9
-10 13 -21 10 -25 -4 -3 -7 -1 -7 5 0 6 -9 13 -20 17 -11 3 -19 9 -19 13 3 18
-2 22 -15 10 -7 -7 -12 -18 -9 -24 2 -7 0 -15 -6 -19 -7 -3 -8 0 -5 9 3 8 -3
19 -15 26 -12 6 -21 18 -21 26 0 8 -5 12 -10 9 -6 -4 -8 -10 -5 -14 2 -5 -4
-16 -15 -26 -19 -17 -19 -19 -2 -32 9 -8 11 -12 5 -8 -8 4 -13 0 -13 -9 0 -9
4 -16 9 -16 5 0 11 -9 14 -20 4 -16 2 -18 -13 -10 -10 5 -21 15 -23 22 -3 7
-6 8 -6 2 -1 -5 8 -20 19 -32 11 -12 20 -26 20 -31 0 -6 8 -14 17 -20 15 -8
16 -12 4 -34 -8 -14 -11 -35 -8 -47 8 -30 -2 -57 -14 -38 -6 9 -9 6 -9 -12 0
-14 -7 -34 -15 -44 -14 -19 -15 -19 -15 9 0 28 0 28 -21 9 -22 -19 -22 -19
-15 9 4 17 2 27 -5 27 -6 0 -9 9 -6 20 3 11 1 18 -3 15 -5 -3 -9 3 -10 12 -2
63 1 113 8 134 12 30 -3 73 -21 66 -8 -3 -19 5 -27 16 -12 20 -11 21 2 9 13
-10 16 -9 21 7 2 10 1 25 -4 32 -6 9 -9 10 -9 2 0 -6 -8 -12 -17 -12 -10 1
-29 -2 -43 -6 -23 -7 -23 -6 -7 6 16 13 15 14 -12 14 -29 1 -30 0 -13 -18z
m259 -33 c-3 -3 -12 -4 -19 -1 -8 3 -5 6 6 6 11 1 17 -2 13 -5z m68 -14 c3 -6
-1 -7 -9 -4 -18 7 -21 14 -7 14 6 0 13 -4 16 -10z m1055 -13 c0 -2 -9 -10 -19
-19 -18 -16 -20 -15 -18 1 0 9 9 18 19 18 10 1 18 1 18 0z m-1062 -32 c-3 -3
-9 2 -12 12 -6 14 -5 15 5 6 7 -7 10 -15 7 -18z m-358 -7 c0 -6 -6 -5 -15 2
-8 7 -15 14 -15 16 0 2 7 1 15 -2 8 -4 15 -11 15 -16z m-45 -18 c3 -5 1 -10
-4 -10 -6 0 -11 5 -11 10 0 6 2 10 4 10 3 0 8 -4 11 -10z m135 -9 c0 -6 -4
-13 -10 -16 -5 -3 -10 1 -10 9 0 9 5 16 10 16 6 0 10 -4 10 -9z m600 -41 c-8
-5 -5 -12 11 -23 23 -17 22 -27 -3 -31 -7 -1 -23 -8 -35 -14 -29 -16 -29 -17
4 54 19 41 28 53 31 40 2 -10 -1 -22 -8 -26z m688 15 c-3 -3 -9 2 -12 12 -6
14 -5 15 5 6 7 -7 10 -15 7 -18z m-1078 5 c0 -5 -2 -10 -4 -10 -3 0 -8 5 -11
10 -3 6 -1 10 4 10 6 0 11 -4 11 -10z m630 0 c0 -5 -2 -10 -4 -10 -3 0 -8 5
-11 10 -3 6 -1 10 4 10 6 0 11 -4 11 -10z m57 -9 c0 -11 -7 -17 -14 -14 -9 4
-9 8 0 19 16 17 16 17 14 -5z m-647 -31 c-13 -9 -13 -11 0 -20 11 -7 17 -5 22
8 4 10 7 11 7 4 1 -7 6 -10 12 -6 8 5 8 1 0 -14 -15 -28 -31 -37 -31 -17 0 9
-4 13 -10 10 -11 -7 -11 -7 -15 44 -3 31 -2 32 14 17 14 -15 14 -18 1 -26z
m70 30 c0 -5 -5 -10 -11 -10 -5 0 -7 5 -4 10 3 6 8 10 11 10 2 0 4 -4 4 -10z
m-370 -29 c0 -5 -7 -14 -15 -21 -16 -14 -18 -10 -9 14 6 17 24 22 24 7z m559
-33 c0 -27 -2 -29 -9 -13 -7 19 -8 18 -15 -6 -3 -15 -6 -33 -5 -40 5 -30 -1
-50 -11 -47 -17 6 -18 94 -1 91 6 -2 12 4 12 12 0 8 5 15 11 15 5 0 7 5 4 10
-3 6 -1 10 4 10 6 0 11 -15 10 -32z m335 -7 c-1 -21 -7 -47 -13 -57 -10 -18
-10 -18 -12 1 -1 11 -1 25 0 31 1 7 -5 14 -14 18 -9 3 -15 0 -15 -8 0 -7 -10
-21 -21 -32 -22 -19 -22 -19 -10 3 6 12 10 26 9 30 -5 14 36 51 58 52 17 1 20
-4 18 -38z m56 4 c-7 -8 -8 -15 -3 -15 5 0 10 -22 11 -48 1 -37 -4 -56 -22
-81 l-24 -32 -16 23 c-14 20 -21 18 -17 -6 1 -4 -3 -14 -10 -22 -6 -7 -7 -19
-3 -25 4 -8 3 -9 -4 -5 -7 4 -10 18 -7 32 3 13 7 35 10 49 6 26 45 37 45 13 0
-6 9 -2 20 10 22 23 26 47 10 57 -5 3 -10 -3 -10 -14 0 -11 -4 -22 -8 -25 -5
-3 -9 18 -9 45 -1 43 3 52 21 59 27 10 32 5 16 -15z m-877 -17 c-16 -18 -18
-19 -21 -3 -4 19 16 37 31 28 4 -3 0 -14 -10 -25z m194 -10 c-3 -8 -6 -5 -6 6
-1 11 2 17 5 13 3 -3 4 -12 1 -19z m970 -30 c-3 -8 -6 -5 -6 6 -1 11 2 17 5
13 3 -3 4 -12 1 -19z m-628 -19 c4 -8 -1 -30 -11 -49 -17 -34 -22 -33 -19 3 3
21 -13 22 -34 1 -9 -9 -19 -14 -22 -11 -3 3 1 13 10 21 8 8 17 12 20 9 3 -3 9
6 12 20 7 27 32 30 44 6z m-610 -3 c9 -10 8 -15 -3 -19 -8 -3 -16 2 -19 14 -6
22 6 25 22 5z m313 -36 c-4 -54 -16 -65 -26 -24 -5 17 -1 35 9 50 8 13 16 24
18 24 1 0 0 -22 -1 -50z m162 25 c-4 -8 -8 -15 -10 -15 -2 0 -4 7 -4 15 0 8 4
15 10 15 5 0 7 -7 4 -15z m176 -13 c0 -15 -2 -15 -10 -2 -13 20 -13 33 0 25 6
-3 10 -14 10 -23z m569 -15 c0 -21 -1 -21 -9 -2 -12 28 -12 37 0 30 6 -3 10
-16 9 -28z m-972 3 c-4 -28 -15 -35 -12 -8 3 27 3 28 10 28 3 0 4 -9 2 -20z
m604 -7 c-12 -20 -14 -14 -5 12 4 9 9 14 11 11 3 -2 0 -13 -6 -23z m-1209 -6
c4 -19 0 -22 -21 -21 -33 1 -39 22 -9 33 12 6 24 10 24 10 1 1 4 -9 6 -22z
m828 -11 c0 -3 -4 -8 -10 -11 -5 -3 -10 -1 -10 4 0 6 5 11 10 11 6 0 10 -2 10
-4z m650 -44 c0 -5 -7 -9 -15 -9 -8 0 -15 4 -15 9 0 4 7 8 15 8 8 0 15 -4 15
-8z m-680 -12 c0 -5 -4 -10 -10 -10 -5 0 -10 5 -10 10 0 6 5 10 10 10 6 0 10
-4 10 -10z m384 -34 c-3 -9 4 -15 24 -18 21 -3 28 0 25 8 -2 7 0 15 6 19 6 3
11 -2 11 -12 0 -15 2 -16 10 -3 8 12 10 10 10 -10 l1 -25 10 24 c11 28 33 15
27 -15 -3 -14 -12 -18 -31 -17 -15 1 -26 -3 -24 -10 1 -6 -7 -13 -17 -15 -15
-3 -18 0 -13 18 4 16 2 20 -9 16 -9 -3 -12 -1 -9 4 3 6 -3 10 -14 10 -20 0
-28 19 -14 33 10 11 13 8 7 -7z m-384 -17 c0 -6 -4 -7 -10 -4 -5 3 -10 11 -10
16 0 6 5 7 10 4 6 -3 10 -11 10 -16z m35 -9 c3 -5 1 -10 -4 -10 -6 0 -11 5
-11 10 0 6 2 10 4 10 3 0 8 -4 11 -10z m-955 -10 c0 -5 -5 -10 -11 -10 -5 0
-7 5 -4 10 3 6 8 10 11 10 2 0 4 -4 4 -10z m1022 -167 c2 -71 2 -130 1 -132
-1 -2 -31 -6 -66 -8 l-64 -6 -6 34 c-3 19 -6 71 -6 116 -1 45 -4 88 -7 97 -7
18 13 23 88 25 l56 1 4 -127z m47 -25 c1 -55 -2 -98 -7 -98 -5 0 -10 41 -11
92 -1 50 -2 94 -3 97 0 3 1 17 2 31 l2 25 7 -25 c4 -14 9 -69 10 -122z m318
124 c-8 -10 -12 -53 -12 -128 0 -107 -1 -114 -20 -115 -11 0 -31 -2 -44 -5
-13 -2 -41 1 -62 6 -33 9 -38 14 -34 33 7 27 13 103 14 175 l1 53 85 -2 c74
-2 83 -4 72 -17z m-540 -39 c-4 -17 -4 -17 -12 0 -4 9 -4 25 0 35 8 16 8 16
12 0 3 -10 3 -26 0 -35z m349 -79 c-2 -63 -7 -118 -10 -121 -3 -4 -6 45 -6
109 0 101 4 128 17 128 2 0 2 -52 -1 -116z m224 91 c0 -8 -4 -15 -10 -15 -5 0
-10 7 -10 15 0 8 5 15 10 15 6 0 10 -7 10 -15z m-4 -95 c-1 -26 -6 -40 -14
-40 -8 0 -10 5 -6 12 5 7 7 25 6 40 -1 15 1 28 6 28 5 0 8 -18 8 -40z m-569
-2 c-3 -8 -6 -5 -6 6 -1 11 2 17 5 13 3 -3 4 -12 1 -19z m0 -60 c-3 -7 -5 -2
-5 12 0 14 2 19 5 13 2 -7 2 -19 0 -25z m563 -13 c0 -8 -4 -15 -10 -15 -5 0
-7 7 -4 15 4 8 8 15 10 15 2 0 4 -7 4 -15z m-205 -85 c-3 -5 1 -10 10 -10 9 0
14 4 10 10 -3 5 7 5 25 -2 17 -5 60 -8 95 -6 36 2 65 1 65 -3 0 -4 8 -9 18
-11 21 -6 25 -65 4 -61 -7 2 -12 -2 -12 -8 0 -5 -5 -7 -12 -3 -6 4 -61 10
-122 13 l-111 6 -1 35 c-1 32 9 49 29 50 5 0 5 -4 2 -10z m-78 -22 c-3 -8 -6
-5 -6 6 -1 11 2 17 5 13 3 -3 4 -12 1 -19z m338 -116 c-3 -3 -11 0 -18 7 -9
10 -8 11 6 5 10 -3 15 -9 12 -12z m0 -32 c3 -5 2 -10 -4 -10 -5 0 -13 5 -16
10 -3 6 -2 10 4 10 5 0 13 -4 16 -10z"/>
<path d="M1496 1755 c4 -8 7 -15 9 -15 1 0 8 7 15 15 10 13 9 15 -8 15 -15 0
-20 -5 -16 -15z"/>
<path d="M1576 1758 c3 -4 9 -8 15 -8 5 0 9 4 9 8 0 5 -7 9 -15 9 -8 0 -12 -4
-9 -9z"/>
<path d="M1625 1760 c-4 -6 -3 -10 2 -10 4 0 1 -5 -7 -10 -13 -8 -13 -10 1
-10 25 0 44 26 25 33 -9 4 -18 2 -21 -3z"/>
<path d="M600 1753 c0 -4 17 -9 37 -11 20 -1 34 0 31 4 -10 9 -68 16 -68 7z"/>
<path d="M880 1744 c0 -8 5 -12 10 -9 6 3 10 10 10 16 0 5 -4 9 -10 9 -5 0
-10 -7 -10 -16z"/>
<path d="M1197 1749 c7 -7 15 -10 18 -7 3 3 -2 9 -12 12 -14 6 -15 5 -6 -5z"/>
<path d="M1234 1748 c-4 -7 -2 -14 6 -16 9 -3 6 -10 -10 -22 -20 -15 -21 -20
-10 -40 l13 -24 14 28 c10 20 18 25 25 18 8 -8 6 -16 -6 -27 -20 -20 -20 -25
-1 -25 8 0 15 7 15 15 0 9 6 12 15 9 8 -4 15 -1 15 6 0 6 -5 8 -12 4 -7 -5 -9
-2 -6 8 4 8 2 21 -3 29 -7 11 -9 11 -9 1 0 -7 -5 -10 -11 -7 -18 11 -4 29 24
30 21 2 25 -1 16 -12 -8 -9 -8 -13 -1 -13 17 0 25 21 13 33 -16 16 -52 16 -58
0 -3 -7 -9 -10 -14 -7 -5 3 -7 10 -4 15 4 5 4 9 1 9 -3 0 -8 -5 -12 -12z"/>
<path d="M1402 1740 c-10 -17 -10 -23 3 -36 13 -14 15 -14 16 3 0 10 2 26 4
36 4 23 -7 22 -23 -3z"/>
<path d="M1560 1739 c0 -7 -8 -18 -17 -25 -17 -12 -17 -13 0 -10 10 1 22 8 27
15 4 8 13 10 19 7 6 -4 11 -5 11 -2 0 3 -9 10 -20 16 -15 8 -20 8 -20 -1z"/>
<path d="M1800 1724 c0 -8 5 -12 10 -9 6 4 8 11 5 16 -9 14 -15 11 -15 -7z"/>
<path d="M1866 1723 c-6 -14 -5 -15 5 -6 7 7 10 15 7 18 -3 3 -9 -2 -12 -12z"/>
<path d="M2199 1718 c-9 -17 -9 -23 0 -26 8 -3 3 -9 -11 -16 -18 -9 -22 -19
-20 -41 2 -17 8 -35 14 -42 5 -7 8 -18 5 -25 -4 -8 -6 -7 -6 4 -1 9 -6 20 -12
24 -8 5 -10 -1 -5 -19 3 -15 1 -29 -5 -32 -6 -4 -8 -14 -5 -22 3 -8 2 -12 -3
-9 -5 3 -8 -5 -7 -19 1 -24 16 -37 16 -14 0 6 7 9 15 5 13 -4 13 -2 5 14 -5
10 -10 27 -10 37 0 13 6 9 21 -15 12 -18 24 -31 27 -28 3 3 -1 12 -8 21 -10
12 -10 15 2 15 8 0 19 -5 26 -12 9 -9 12 -9 12 -1 0 7 -5 15 -11 19 -6 3 -9
20 -7 36 3 19 0 32 -9 35 -7 3 -13 14 -13 24 0 12 -5 16 -15 13 -9 -4 -15 0
-15 9 0 10 7 15 20 12 17 -3 20 2 20 36 0 45 -4 48 -21 17z"/>
<path d="M2376 1724 c-3 -9 -4 -20 0 -25 3 -5 -5 -9 -18 -9 -29 -1 -64 -25
-46 -32 16 -6 40 1 34 11 -6 9 40 8 50 -1 4 -5 21 -8 38 -8 28 0 29 1 10 15
-10 8 -26 15 -35 15 -12 0 -15 7 -11 25 5 27 -12 35 -22 9z"/>
<path d="M1186 1715 c-3 -8 -1 -17 3 -20 5 -3 11 2 15 10 3 8 1 17 -3 20 -5 3
-11 -2 -15 -10z"/>
<path d="M200 1700 l-23 -20 21 0 c12 0 21 6 20 13 -2 6 5 11 14 11 10 -1 15
2 12 7 -8 14 -19 11 -44 -11z"/>
<path d="M270 1712 c0 -5 7 -9 15 -9 8 0 12 4 9 9 -3 4 -9 8 -15 8 -5 0 -9 -4
-9 -8z"/>
<path d="M1610 1709 c0 -5 5 -7 10 -4 6 3 10 8 10 11 0 2 -4 4 -10 4 -5 0 -10
-5 -10 -11z"/>
<path d="M729 1688 c-6 -21 -5 -38 2 -38 5 0 9 9 9 20 0 16 -7 28 -11 18z"/>
<path d="M1180 1670 c0 -5 4 -10 9 -10 6 0 13 5 16 10 3 6 -1 10 -9 10 -9 0
-16 -4 -16 -10z"/>
<path d="M1326 1666 c6 -15 46 -16 41 -1 -2 5 -13 10 -24 11 -12 1 -19 -4 -17
-10z"/>
<path d="M2145 1669 c-4 -6 -5 -12 -2 -15 2 -3 7 2 10 11 7 17 1 20 -8 4z"/>
<path d="M0 1661 c0 -11 51 -21 113 -21 47 0 49 1 31 15 -21 16 -144 21 -144
6z"/>
<path d="M1491 1653 c1 -4 -1 -16 -6 -26 -4 -10 -5 -20 -3 -22 3 -3 10 6 16
20 7 16 8 26 1 30 -5 4 -9 3 -8 -2z"/>
<path d="M2125 1619 c-4 -12 -3 -25 2 -30 6 -6 10 2 10 21 0 35 -3 38 -12 9z"/>
<path d="M0 1622 c0 -12 74 -22 157 -22 47 0 64 3 61 13 -5 14 -218 23 -218 9z"/>
<path d="M460 1612 c-53 -17 -77 -84 -45 -126 15 -19 15 -19 41 5 18 17 24 31
21 49 -3 14 -1 32 3 40 11 20 -1 38 -20 32z"/>
<path d="M2482 1613 c-13 -3 -26 -11 -29 -19 -3 -8 -13 -14 -22 -14 -12 0 -17
-8 -17 -22 1 -30 16 -40 33 -22 17 17 33 18 33 3 0 -6 12 -1 26 10 20 15 31
18 44 11 27 -15 50 -12 50 5 0 12 -13 15 -61 15 -45 0 -58 -3 -53 -12 5 -10 4
-10 -6 -1 -21 19 -6 25 59 24 48 0 61 3 61 14 0 11 -12 15 -47 14 -27 -1 -58
-4 -71 -6z"/>
<path d="M880 1590 c0 -9 6 -22 12 -28 8 -8 9 -15 3 -20 -29 -21 -40 -82 -19
-101 4 -3 4 2 1 12 -4 9 -2 17 3 17 5 0 12 10 16 23 3 12 12 29 20 37 11 13
10 20 -11 45 -16 20 -24 25 -25 15z"/>
<path d="M1128 1593 c7 -3 16 -2 19 1 4 3 -2 6 -13 5 -11 0 -14 -3 -6 -6z"/>
<path d="M0 1580 c0 -5 15 -10 33 -10 19 0 68 -3 110 -6 67 -6 77 -5 77 10 0
14 -15 16 -110 16 -67 0 -110 -4 -110 -10z"/>
<path d="M0 1544 c0 -9 28 -14 103 -16 89 -3 130 3 116 16 -2 2 -52 6 -111 8
-83 4 -108 2 -108 -8z"/>
<path d="M2533 1530 c5 -21 67 -26 67 -6 0 13 -4 14 -26 4 -21 -10 -27 -9 -35
3 -9 12 -10 12 -6 -1z"/>
<path d="M0 1506 c0 -14 15 -16 110 -16 67 0 110 4 110 10 0 6 -28 10 -64 10
-35 0 -84 3 -110 6 -38 6 -46 4 -46 -10z"/>
<path d="M2458 1495 c6 -34 27 -38 27 -6 0 18 -6 28 -16 28 -12 1 -15 -5 -11
-22z"/>
<path d="M1680 1492 c0 -5 7 -13 16 -16 10 -4 14 -1 12 6 -5 15 -28 23 -28 10z"/>
<path d="M2394 1474 c-16 -15 -21 -24 -12 -21 12 4 15 2 11 -9 -3 -8 -2 -14 3
-13 35 6 40 -25 6 -34 -10 -3 -4 -5 12 -6 16 0 27 -3 24 -6 -9 -10 -92 -12
-103 -4 -16 12 -91 -26 -97 -49 -4 -14 -2 -19 7 -15 10 3 12 -2 9 -19 -2 -13
-2 -18 2 -11 3 7 12 9 20 6 9 -3 14 1 14 12 0 9 5 13 11 9 6 -3 14 -1 18 5 4
6 21 14 37 17 19 3 25 2 19 -4 -5 -6 -19 -12 -30 -14 -11 -2 -18 -8 -15 -13 2
-6 10 -9 17 -7 18 4 17 -33 -1 -47 -11 -9 -17 -8 -28 6 -7 10 -24 18 -38 18
-14 0 -30 4 -37 8 -16 11 -47 -18 -37 -34 4 -7 3 -9 -3 -6 -16 10 -24 -33 -11
-57 11 -21 11 -21 -11 -2 -21 19 -22 19 -37 0 -8 -10 -12 -13 -8 -5 5 11 3 13
-10 8 -10 -4 -20 -7 -22 -7 -15 0 1 -18 29 -29 17 -8 38 -21 45 -28 8 -7 19
-10 25 -6 8 5 8 8 -1 11 -19 6 -14 22 7 22 29 0 34 17 10 34 l-21 14 20 13
c16 10 18 16 10 27 -9 11 -6 12 18 6 16 -4 35 -11 41 -16 18 -14 59 -2 83 24
15 17 17 24 8 30 -10 6 -10 8 0 8 7 0 11 4 8 9 -3 5 6 9 19 10 51 3 56 5 51
18 -13 34 34 54 72 30 7 -5 12 -4 12 3 0 6 -10 15 -22 20 -21 8 -22 9 -3 10
11 1 14 4 8 7 -20 8 -16 33 5 27 9 -3 7 1 -6 8 -12 8 -19 18 -15 23 4 4 2 5
-5 1 -7 -4 -9 -13 -5 -19 4 -7 -1 -6 -10 2 -10 8 -20 11 -24 7 -3 -3 -1 -6 6
-6 7 0 9 -4 6 -10 -3 -5 -3 -10 2 -10 4 0 8 -11 8 -24 0 -15 -5 -22 -12 -19
-7 3 -13 11 -13 19 0 8 -4 14 -10 14 -5 0 -9 12 -9 28 0 71 -5 74 -47 36z
m-109 -134 c3 -5 -1 -10 -9 -10 -9 0 -16 5 -16 10 0 6 4 10 9 10 6 0 13 -4 16
-10z"/>
<path d="M2568 1483 c7 -3 16 -2 19 1 4 3 -2 6 -13 5 -11 0 -14 -3 -6 -6z"/>
<path d="M380 1464 c0 -8 5 -12 10 -9 6 4 8 11 5 16 -9 14 -15 11 -15 -7z"/>
<path d="M2578 1443 c7 -3 16 -2 19 1 4 3 -2 6 -13 5 -11 0 -14 -3 -6 -6z"/>
<path d="M1421 1408 c-1 -36 -15 -51 -23 -26 -3 7 -7 6 -11 -5 -5 -13 -1 -17
14 -17 11 0 18 -4 15 -9 -7 -10 24 -25 33 -15 3 3 -1 11 -9 17 -9 7 -14 20
-12 29 2 10 1 28 -1 40 -3 15 -5 9 -6 -14z"/>
<path d="M230 1420 c0 -5 5 -10 11 -10 5 0 7 5 4 10 -3 6 -8 10 -11 10 -2 0
-4 -4 -4 -10z"/>
<path d="M2360 1403 c0 -10 4 -14 8 -8 4 6 11 13 16 18 5 4 2 7 -7 7 -10 0
-17 -8 -17 -17z"/>
<path d="M510 1401 c0 -5 5 -13 10 -16 6 -3 10 -2 10 4 0 5 -4 13 -10 16 -5 3
-10 2 -10 -4z"/>
<path d="M721 1374 c0 -11 3 -14 6 -6 3 7 2 16 -1 19 -3 4 -6 -2 -5 -13z"/>
<path d="M2460 1340 c0 -5 5 -10 10 -10 6 0 10 5 10 10 0 6 -4 10 -10 10 -5 0
-10 -4 -10 -10z"/>
<path d="M1410 1326 c0 -2 7 -9 15 -16 13 -11 14 -10 9 4 -5 14 -24 23 -24 12z"/>
<path d="M2205 1310 c3 -5 8 -10 11 -10 2 0 4 5 4 10 0 6 -5 10 -11 10 -5 0
-7 -4 -4 -10z"/>
<path d="M2163 1270 c-3 -11 -14 -20 -25 -20 -24 0 -16 -16 12 -23 11 -3 18
-2 15 3 -3 4 2 11 11 14 13 5 14 9 5 20 -10 11 -8 15 6 19 17 4 17 5 0 6 -11
1 -21 -7 -24 -19z"/>
<path d="M1362 1268 c5 -15 28 -23 28 -10 0 5 -7 13 -16 16 -10 4 -14 1 -12
-6z"/>
<path d="M422 1240 c2 -16 1 -31 -3 -32 -3 -2 -10 -18 -14 -36 -7 -32 -6 -33
13 -23 18 9 21 8 19 -8 -1 -11 -7 -17 -17 -14 -20 5 -23 -24 -3 -31 7 -3 13
-11 13 -18 0 -10 -3 -9 -9 1 -7 12 -13 12 -24 3 -7 -7 -17 -9 -20 -5 -4 3 -7
3 -7 -1 0 -4 7 -14 15 -22 8 -9 15 -21 15 -27 0 -7 -4 -7 -9 2 -10 16 -51 23
-51 9 0 -4 -4 -8 -10 -8 -5 0 -7 7 -4 15 4 8 1 15 -5 15 -6 0 -11 -6 -11 -13
0 -8 -10 -22 -22 -33 -19 -17 -21 -17 -15 -2 8 22 -10 33 -28 18 -19 -15 -19
-30 -2 -30 18 0 82 -58 74 -67 -4 -3 -7 -1 -7 6 0 7 -4 10 -9 6 -5 -3 -13 0
-17 6 -4 8 -9 7 -15 -2 -6 -10 -9 -11 -9 -1 0 6 -7 12 -15 12 -9 0 -12 6 -9
18 5 16 5 16 -6 -1 -6 -9 -8 -22 -5 -27 3 -6 1 -10 -4 -10 -6 0 -11 11 -11 25
0 14 -7 28 -15 32 -22 8 -30 -4 -16 -21 7 -8 10 -20 7 -25 -4 -5 2 -14 11 -20
16 -9 16 -10 1 -11 -16 0 -17 -26 -3 -107 3 -19 1 -21 -13 -14 -20 10 -44 -4
-55 -31 -4 -12 -1 -18 9 -18 8 0 12 5 9 10 -3 6 -1 10 5 10 6 0 13 -6 16 -14
4 -9 18 -14 39 -13 31 2 33 5 39 43 3 23 13 55 23 72 18 32 42 43 44 20 0 -7
4 -3 9 10 6 13 18 22 30 22 18 0 21 5 19 34 -2 19 0 38 4 42 4 4 7 -5 7 -19 0
-20 5 -27 19 -27 26 0 42 22 31 40 -6 8 -10 22 -10 30 0 13 1 13 10 0 8 -12
10 -12 16 3 3 9 11 17 16 17 16 0 58 49 58 66 0 8 5 12 10 9 13 -8 13 21 0 46
-9 15 -7 19 7 19 10 1 -3 10 -28 21 -37 16 -48 27 -53 50 -8 41 -40 41 -34 -1z
m48 -140 c0 -5 -7 -7 -15 -4 -8 4 -15 8 -15 10 0 2 7 4 15 4 8 0 15 -4 15 -10z
m-243 -252 c-3 -8 -6 -5 -6 6 -1 11 2 17 5 13 3 -3 4 -12 1 -19z"/>
<path d="M1810 1260 c0 -5 5 -10 10 -10 6 0 10 5 10 10 0 6 -4 10 -10 10 -5 0
-10 -4 -10 -10z"/>
<path d="M915 1250 c-3 -5 -1 -10 4 -10 6 0 11 5 11 10 0 6 -2 10 -4 10 -3 0
-8 -4 -11 -10z"/>
<path d="M1841 1244 c0 -11 3 -14 6 -6 3 7 2 16 -1 19 -3 4 -6 -2 -5 -13z"/>
<path d="M1865 1231 c1 -11 7 -27 14 -35 12 -14 11 -19 -2 -34 -13 -15 -13
-19 -1 -30 8 -7 13 -20 13 -30 -1 -16 -2 -16 -6 1 -6 24 -23 21 -23 -4 0 -12
-8 -23 -20 -26 -11 -3 -20 -9 -20 -14 0 -5 7 -6 15 -3 8 4 22 0 31 -7 13 -10
16 -9 21 9 3 12 12 22 20 22 10 0 13 -6 8 -17 -5 -14 -3 -15 6 -6 6 6 12 30
12 52 0 33 3 39 18 36 12 -2 19 2 19 11 0 8 -10 14 -25 14 -14 0 -25 -5 -25
-12 0 -6 -3 -8 -6 -5 -4 4 -1 14 7 24 12 15 12 16 -2 11 -24 -9 -49 39 -29 52
12 8 11 10 -6 10 -14 0 -20 -6 -19 -19z m51 -139 c-12 -11 -18 7 -10 30 l8 23
4 -23 c2 -13 1 -26 -2 -30z"/>
<path d="M770 1230 c-9 -6 -10 -10 -3 -10 6 0 15 5 18 10 8 12 4 12 -15 0z"/>
<path d="M1665 1230 c4 -6 11 -8 16 -5 14 9 11 15 -7 15 -8 0 -12 -5 -9 -10z"/>
<path d="M2093 1217 c2 -7 12 -14 21 -15 11 -3 17 1 14 9 -2 7 -12 13 -22 15
-9 1 -15 -3 -13 -9z"/>
<path d="M2247 1213 c-16 -8 -24 -19 -20 -26 5 -8 8 -8 11 1 2 7 10 12 17 12
7 0 15 7 19 15 3 8 4 15 3 14 -1 -1 -14 -8 -30 -16z"/>
<path d="M683 1198 c-21 -27 -24 -42 -3 -18 l21 25 -6 -25 c-5 -22 -5 -23 6
-7 13 23 -2 45 -18 25z"/>
<path d="M835 1201 c-3 -5 -1 -12 5 -16 5 -3 10 1 10 9 0 18 -6 21 -15 7z"/>
<path d="M1320 1190 c0 -5 5 -10 10 -10 6 0 10 5 10 10 0 6 -4 10 -10 10 -5 0
-10 -4 -10 -10z"/>
<path d="M1970 1188 c0 -4 7 -8 15 -8 8 0 15 4 15 8 0 5 -7 9 -15 9 -8 0 -15
-4 -15 -9z"/>
<path d="M721 1174 c0 -11 3 -14 6 -6 3 7 2 16 -1 19 -3 4 -6 -2 -5 -13z"/>
<path d="M740 1115 c-2 -44 -3 -86 -3 -93 1 -8 -6 -12 -17 -9 -13 3 -17 -1
-17 -19 0 -36 21 -29 43 14 10 20 22 39 27 40 13 6 8 40 -7 45 -9 4 -16 24
-19 54 -3 37 -4 30 -7 -32z"/>
<path d="M762 1150 c0 -19 2 -27 5 -17 2 9 2 25 0 35 -3 9 -5 1 -5 -18z"/>
<path d="M2384 1172 c2 -4 -2 -37 -9 -72 -17 -77 -19 -122 -6 -101 5 8 18 12
31 8 20 -5 21 -4 6 12 -16 17 -15 19 15 31 25 11 32 11 39 1 5 -10 13 -7 29
10 27 29 27 39 -1 36 -19 -2 -24 4 -26 28 -5 52 -9 57 -33 43 -17 -10 -23 -10
-26 0 -3 6 -9 12 -14 12 -6 0 -8 -4 -5 -8z"/>
<path d="M1800 1160 c0 -5 5 -10 10 -10 6 0 10 5 10 10 0 6 -4 10 -10 10 -5 0
-10 -4 -10 -10z"/>
<path d="M2590 1156 c0 -8 -5 -16 -12 -18 -7 -3 -6 -7 5 -11 13 -5 17 -1 17
18 0 14 -2 25 -5 25 -3 0 -5 -6 -5 -14z"/>
<path d="M915 1140 c3 -5 11 -10 16 -10 6 0 7 5 4 10 -3 6 -11 10 -16 10 -6 0
-7 -4 -4 -10z"/>
<path d="M1665 1140 c-3 -5 -1 -10 4 -10 6 0 11 5 11 10 0 6 -2 10 -4 10 -3 0
-8 -4 -11 -10z"/>
<path d="M355 1130 c-13 -6 -15 -9 -5 -9 13 -1 13 -2 0 -11 -8 -5 -11 -10 -6
-10 5 0 3 -7 -4 -15 -19 -23 -6 -18 24 10 39 36 35 54 -9 35z"/>
<path d="M782 1120 c0 -14 2 -19 5 -12 2 6 2 18 0 25 -3 6 -5 1 -5 -13z"/>
<path d="M1326 1131 c-4 -7 -5 -15 -2 -18 9 -9 19 4 14 18 -4 11 -6 11 -12 0z"/>
<path d="M1781 1122 c-14 -26 -14 -32 -1 -32 6 0 10 8 10 18 0 14 2 15 10 2 5
-8 10 -10 10 -5 0 6 -4 16 -9 24 -7 11 -11 10 -20 -7z"/>
<path d="M1951 1125 c1 -11 5 -31 9 -45 8 -24 8 -24 9 5 0 17 -4 37 -9 45 -8
12 -10 11 -9 -5z"/>
<path d="M1977 1120 c3 -11 7 -20 9 -20 2 0 4 9 4 20 0 11 -4 20 -9 20 -5 0
-7 -9 -4 -20z"/>
<path d="M840 1124 c0 -5 7 -18 15 -28 8 -11 15 -16 15 -10 0 5 -7 18 -15 28
-8 11 -15 16 -15 10z"/>
<path d="M1691 1123 c-1 -7 -8 -13 -16 -13 -19 0 -20 -29 0 -36 8 -4 12 -10 9
-15 -3 -5 0 -9 6 -9 6 0 13 7 16 15 4 8 11 12 17 8 6 -3 7 -1 3 6 -5 7 -16 9
-29 5 -19 -6 -20 -5 -8 9 7 9 11 22 8 29 -4 10 -6 10 -6 1z"/>
<path d="M606 1103 c-6 -14 -5 -15 5 -6 7 7 10 15 7 18 -3 3 -9 -2 -12 -12z"/>
<path d="M918 1083 c7 -3 16 -2 19 1 4 3 -2 6 -13 5 -11 0 -14 -3 -6 -6z"/>
<path d="M2005 1046 c5 -55 10 -66 18 -36 3 12 1 18 -5 14 -6 -4 -8 1 -3 15 3
11 2 29 -4 38 -8 14 -9 6 -6 -31z"/>
<path d="M1795 1070 c3 -5 8 -10 11 -10 2 0 4 5 4 10 0 6 -5 10 -11 10 -5 0
-7 -4 -4 -10z"/>
<path d="M2030 1055 c0 -16 27 -75 34 -75 2 0 4 16 4 36 0 21 -3 32 -8 25 -5
-10 -9 -9 -13 3 -3 8 -1 17 6 20 7 2 4 5 -5 5 -10 1 -18 -6 -18 -14z"/>
<path d="M660 1048 c0 -6 -3 -8 -7 -5 -3 4 -14 -5 -24 -20 -16 -23 -19 -25
-25 -10 -9 24 -17 21 -31 -9 -11 -24 -8 -54 6 -54 3 0 19 16 34 35 16 20 32
33 36 31 5 -3 13 6 19 19 7 15 8 25 2 25 -6 0 -10 -5 -10 -12z m-54 -50 c4 -7
4 -10 -1 -6 -4 4 -15 2 -24 -5 -14 -11 -14 -10 -2 6 16 20 18 21 27 5z"/>
<path d="M1320 1040 c0 -5 5 -10 10 -10 6 0 10 5 10 10 0 6 -4 10 -10 10 -5 0
-10 -4 -10 -10z"/>
<path d="M2426 1034 c-8 -21 -8 -24 3 -24 12 0 22 28 12 35 -5 3 -12 -2 -15
-11z"/>
<path d="M1800 1030 c0 -5 7 -10 16 -10 8 0 12 5 9 10 -3 6 -10 10 -16 10 -5
0 -9 -4 -9 -10z"/>
<path d="M1700 1020 c0 -5 5 -10 10 -10 6 0 10 5 10 10 0 6 -4 10 -10 10 -5 0
-10 -4 -10 -10z"/>
<path d="M1885 1011 c-3 -5 -1 -12 5 -16 5 -3 10 1 10 9 0 18 -6 21 -15 7z"/>
<path d="M2081 1004 c0 -11 3 -14 6 -6 3 7 2 16 -1 19 -3 4 -6 -2 -5 -13z"/>
<path d="M2320 1012 c0 -6 -8 -13 -17 -15 -16 -4 -16 -5 -1 -6 18 -1 34 16 24
26 -3 4 -6 1 -6 -5z"/>
<path d="M2450 1008 c-14 -5 -29 -16 -34 -25 -7 -13 -10 -13 -17 -2 -8 12 -11
12 -18 -1 -7 -10 -4 -18 13 -30 13 -8 21 -21 18 -28 -2 -7 4 -22 13 -32 19
-21 13 -40 -13 -39 -14 0 -13 2 3 9 23 10 22 10 -26 15 l-35 3 1 -68 c1 -40 7
-75 14 -84 11 -13 11 -16 -2 -16 -17 0 -27 -41 -27 -109 0 -38 4 -48 23 -56
20 -9 22 -16 19 -67 -2 -32 0 -58 5 -58 5 0 24 -20 41 -45 18 -26 37 -43 42
-40 6 3 16 3 23 -2 6 -4 33 -8 59 -8 37 0 48 4 48 16 0 9 -10 21 -22 28 l-23
11 23 -6 c20 -5 22 -2 20 24 -1 20 -6 28 -15 25 -7 -3 -13 0 -13 6 0 6 -7 11
-15 11 -9 0 -12 6 -9 15 4 9 0 15 -7 15 -12 0 -12 2 0 9 8 5 9 11 3 15 -6 3
-8 15 -5 25 3 13 -1 21 -14 23 -13 4 -8 8 17 15 26 8 29 11 13 12 -16 1 -21 6
-17 16 14 35 43 10 45 -38 0 -21 1 -21 9 -2 5 11 9 25 9 32 1 16 -29 44 -40
38 -5 -4 -9 8 -9 24 0 19 -5 31 -13 31 -8 0 -22 8 -31 19 -15 17 -15 19 -1 25
12 4 16 16 14 40 -2 21 3 39 14 50 28 28 21 61 -20 95 -27 22 -41 28 -54 21
-13 -7 -18 -5 -22 10 -3 11 -13 20 -22 20 -9 0 -13 5 -10 11 4 6 13 8 21 5 9
-3 18 3 22 15 8 20 9 20 23 3 8 -11 9 -15 2 -10 -9 5 -11 2 -7 -8 8 -22 29 -9
32 18 2 29 -14 37 -48 24z m-70 -158 c0 -5 -4 -10 -10 -10 -5 0 -10 5 -10 10
0 6 5 10 10 10 6 0 10 -4 10 -10z m55 -70 c4 -7 12 -7 18 -2 14 10 27 10 45
-1 9 -6 8 -12 -5 -25 -22 -22 -55 -24 -70 -4 -11 13 -13 13 -14 1 0 -13 -17
16 -18 34 -1 11 37 8 44 -3z m90 -330 c3 -6 -4 -10 -17 -10 -18 0 -20 2 -8 10
19 12 18 12 25 0z m49 -51 c-10 -16 -23 -9 -21 10 1 15 4 17 14 9 7 -5 10 -14
7 -19z m-29 -29 c3 -6 -1 -7 -9 -4 -18 7 -21 14 -7 14 6 0 13 -4 16 -10z"/>
<path d="M946 1001 c-4 -5 -2 -12 3 -15 5 -4 12 -2 15 3 4 5 2 12 -3 15 -5 4
-12 2 -15 -3z"/>
<path d="M1760 1000 c0 -5 5 -10 10 -10 6 0 10 5 10 10 0 6 -4 10 -10 10 -5 0
-10 -4 -10 -10z"/>
<path d="M1790 979 c0 -5 5 -7 10 -4 6 3 10 8 10 11 0 2 -4 4 -10 4 -5 0 -10
-5 -10 -11z"/>
<path d="M1917 973 c-10 -9 -9 -33 1 -33 4 0 8 9 9 20 2 21 0 24 -10 13z"/>
<path d="M2309 972 c8 -6 11 -17 8 -25 -4 -11 0 -13 14 -10 10 3 19 10 19 15
0 5 -5 6 -10 3 -6 -4 -9 -1 -8 6 2 7 -6 14 -17 16 -15 3 -17 2 -6 -5z"/>
<path d="M1760 960 c0 -5 5 -10 10 -10 6 0 10 5 10 10 0 6 -4 10 -10 10 -5 0
-10 -4 -10 -10z"/>
<path d="M2240 937 l0 -37 25 16 c23 15 25 15 25 0 0 -9 -6 -15 -12 -13 -7 1
-14 -8 -16 -20 -2 -13 1 -23 7 -23 6 0 10 -6 9 -12 -2 -7 3 -12 10 -10 8 1 11
-2 7 -8 -5 -8 -11 -7 -21 1 -8 6 -14 8 -14 5 0 -4 -9 -2 -20 4 -11 6 -19 7
-18 1 3 -9 -1 -11 -28 -11 -9 0 -12 5 -8 13 6 10 4 10 -7 0 -7 -7 -23 -13 -36
-13 -17 0 -21 -4 -16 -17 4 -11 3 -14 -5 -9 -7 4 -12 14 -12 22 0 8 -5 14 -10
14 -12 0 -1 -53 12 -58 4 -2 6 -8 2 -13 -3 -5 3 -9 14 -9 11 0 25 -13 35 -35
9 -19 20 -35 24 -35 13 0 34 40 27 51 -4 7 0 9 12 5 23 -7 73 33 66 52 -2 7 5
16 16 19 14 3 19 10 15 21 -5 11 -3 13 8 7 12 -8 12 -6 1 8 -8 9 -11 20 -8 26
3 5 0 11 -6 13 -7 3 -13 13 -13 24 0 12 -7 19 -20 19 -11 0 -25 9 -32 20 -11
18 -12 16 -13 -18z m-50 -137 c9 0 7 -47 -2 -56 -7 -7 -38 24 -38 38 0 7 4 7
13 -1 10 -8 14 -7 14 4 0 8 -6 15 -14 15 -7 0 -13 5 -13 11 0 5 5 7 10 4 6 -3
11 0 11 7 1 7 3 5 6 -4 2 -10 8 -18 13 -18z m80 1 c0 -5 -6 -13 -13 -19 -10
-8 -13 -6 -14 9 -1 10 5 19 13 19 8 0 14 -4 14 -9z"/>
<path d="M843 941 c-17 -5 -20 -10 -13 -21 7 -11 12 -12 18 -4 4 7 16 13 27
16 15 3 16 5 5 9 -8 3 -25 3 -37 0z"/>
<path d="M685 924 c23 -23 16 -69 -10 -69 -11 0 -25 -7 -31 -15 -10 -12 -14
-12 -28 -1 -9 7 -16 10 -16 5 -1 -5 -8 2 -16 16 -15 24 -15 21 1 -28 6 -22 5
-23 -17 -12 -12 7 -31 21 -41 31 -19 20 -83 27 -71 8 3 -6 1 -15 -6 -19 -7 -4
-9 -13 -6 -19 4 -6 12 -9 17 -6 5 4 6 -2 2 -12 -5 -15 -4 -16 8 -7 11 9 28 7
74 -7 l60 -20 17 23 c9 13 20 19 24 15 4 -4 2 -7 -5 -7 -7 0 -9 -5 -6 -11 4
-6 13 -8 21 -5 8 3 14 1 14 -4 0 -6 9 -10 20 -10 25 0 25 -9 3 -26 -16 -11 -6
-13 64 -14 72 0 85 3 103 22 11 12 23 18 27 14 5 -4 -4 -17 -20 -28 -15 -11
-27 -29 -27 -39 0 -11 -5 -17 -10 -14 -6 4 -5 -5 2 -19 13 -31 22 -26 23 12 0
15 5 27 10 28 30 3 45 17 40 38 -5 16 -4 18 4 6 9 -13 12 -13 26 1 15 15 14
17 -18 22 -19 3 -47 4 -61 3 -14 -2 -23 1 -20 5 3 5 0 9 -6 9 -8 0 -7 5 2 15
34 37 38 44 28 50 -6 3 -13 -1 -17 -11 -6 -15 -7 -15 -21 2 -13 17 -14 17 -8
1 3 -11 2 -16 -5 -12 -5 4 -16 1 -24 -5 -11 -9 -18 -9 -30 4 -9 9 -14 16 -10
16 3 0 -1 10 -9 22 -9 12 -16 33 -16 45 0 18 -6 23 -26 23 -23 0 -24 -1 -9
-16z m12 -90 c-3 -3 -12 -4 -19 -1 -8 3 -5 6 6 6 11 1 17 -2 13 -5z m35 -86
c-7 -7 -12 -8 -12 -2 0 14 12 26 19 19 2 -3 -1 -11 -7 -17z"/>
<path d="M2348 933 c-14 -2 -29 -11 -32 -20 -5 -11 -2 -14 10 -9 8 3 28 6 42
7 15 0 21 3 14 6 -6 2 -10 9 -6 14 3 5 4 8 2 8 -2 -1 -15 -4 -30 -6z"/>
<path d="M1790 894 c0 -8 5 -12 10 -9 6 4 8 11 5 16 -9 14 -15 11 -15 -7z"/>
<path d="M2378 893 c7 -3 16 -2 19 1 4 3 -2 6 -13 5 -11 0 -14 -3 -6 -6z"/>
<path d="M2161 875 c-27 -9 -30 -13 -16 -19 10 -3 23 -2 30 4 6 5 14 8 17 5 2
-3 5 2 5 10 0 8 -1 14 -1 14 -1 -1 -16 -7 -35 -14z"/>
<path d="M2065 870 c-3 -5 -1 -10 4 -10 6 0 11 5 11 10 0 6 -2 10 -4 10 -3 0
-8 -4 -11 -10z"/>
<path d="M20 859 c0 -5 -4 -7 -10 -4 -5 3 -10 1 -10 -6 0 -6 8 -9 20 -6 10 3
24 -1 31 -9 9 -11 9 -14 0 -14 -7 0 -9 -4 -6 -10 9 -14 34 -12 50 4 12 12 11
16 -5 31 -10 9 -24 14 -31 9 -8 -4 -10 -3 -5 4 5 8 0 12 -13 12 -12 0 -21 -5
-21 -11z"/>
<path d="M68 785 c-4 -4 -4 -13 -1 -21 3 -9 -2 -14 -16 -14 -12 0 -21 -4 -21
-10 0 -5 7 -6 17 -3 10 4 14 2 10 -4 -4 -6 0 -14 9 -17 11 -4 15 -2 11 8 -3 7
-2 17 3 22 9 10 -2 48 -12 39z"/>
<path d="M1100 780 c0 -6 -11 -8 -27 -4 -25 7 -26 5 -20 -24 5 -27 3 -32 -21
-41 -19 -7 -22 -10 -9 -12 37 -5 42 -3 42 11 0 9 9 15 23 14 12 0 22 3 22 8 0
4 7 8 15 8 18 0 20 16 4 26 -8 4 -7 9 2 15 10 6 8 9 -8 9 -13 0 -23 -5 -23
-10z"/>
<path d="M10 770 c-8 -5 -11 -12 -8 -15 4 -4 17 0 30 9 24 17 5 23 -22 6z"/>
<path d="M446 768 c-13 -40 -6 -43 96 -40 102 4 106 2 99 -40 0 -4 8 -12 18
-17 13 -7 17 -18 14 -35 -6 -31 -51 -48 -104 -40 -48 8 -81 -2 -59 -17 12 -8
10 -10 -7 -6 -13 3 -23 1 -23 -3 0 -5 10 -17 23 -27 18 -15 22 -28 21 -68 -1
-79 -14 -115 -55 -154 -22 -20 -39 -39 -39 -43 0 -15 69 18 104 50 30 26 35
36 26 47 -9 11 -7 16 10 25 11 6 29 8 40 5 10 -3 22 -1 25 6 6 8 10 8 16 -2 4
-7 3 -19 -3 -26 -5 -7 -8 -20 -4 -28 3 -8 1 -15 -4 -15 -6 0 -10 5 -10 12 0 6
-3 9 -6 6 -3 -4 0 -17 7 -30 6 -12 8 -20 4 -16 -4 4 -16 3 -26 -3 -13 -6 -19
-6 -19 1 0 16 -27 12 -34 -6 -3 -8 -11 -12 -17 -9 -6 4 -5 -3 3 -15 10 -17 10
-24 1 -27 -7 -2 -9 -11 -6 -19 8 -21 23 -17 23 7 0 28 24 19 28 -11 3 -18 6
-20 13 -9 6 10 9 10 9 2 0 -25 28 -12 39 17 11 33 32 42 24 10 -3 -11 -10 -20
-15 -20 -6 0 -5 -7 2 -15 16 -20 37 -19 48 1 11 20 34 10 25 -11 -4 -11 3 -15
30 -15 39 0 107 25 107 40 0 6 9 10 20 10 13 0 17 5 14 14 -7 18 44 34 129 43
43 4 57 9 53 19 -3 8 -1 14 4 14 5 0 7 14 5 31 -2 19 2 37 11 46 10 11 12 19
4 27 -5 7 -6 17 -2 21 4 5 0 6 -10 2 -11 -4 -15 -1 -13 11 2 9 4 21 4 25 1 5
6 5 11 2 6 -4 8 -11 5 -16 -4 -5 -1 -9 5 -9 7 0 10 -7 6 -15 -3 -8 -1 -15 4
-15 16 0 17 34 2 53 -10 11 -11 17 -4 17 7 0 11 6 10 13 -2 9 18 12 72 13 41
1 80 -2 85 -6 16 -11 84 -11 90 1 5 7 11 6 20 -1 7 -6 30 -12 51 -14 22 -3 42
-5 46 -5 3 -1 4 -10 1 -21 -4 -16 -2 -19 12 -13 16 6 17 2 12 -31 -5 -34 -4
-36 10 -24 14 11 16 10 11 -8 -3 -14 1 -27 11 -35 50 -42 50 -42 49 -22 -1 10
2 33 6 51 7 28 5 32 -13 32 -12 0 -21 5 -21 11 0 6 -7 9 -15 5 -9 -3 -15 0
-15 9 0 8 -4 15 -9 15 -17 0 -38 55 -30 78 10 26 13 27 44 6 14 -9 25 -12 25
-7 0 5 -16 15 -35 23 -31 12 -37 20 -34 48 0 4 7 6 15 5 9 0 13 5 10 13 -3 7
-1 16 4 19 4 3 10 0 12 -7 3 -9 6 -9 11 -1 13 20 -27 34 -49 18 -12 -9 -14
-14 -6 -15 9 0 7 -8 -7 -26 -11 -15 -18 -30 -15 -35 9 -15 -8 -10 -29 9 -11 9
-17 11 -13 5 4 -7 3 -13 -3 -13 -6 0 -13 11 -17 25 -3 14 -11 22 -16 19 -5 -4
-34 -8 -63 -10 -41 -3 -58 0 -70 13 -16 15 -16 18 -1 28 17 13 23 30 6 20 -5
-3 -21 2 -35 11 -15 10 -25 12 -25 5 0 -6 6 -11 14 -11 15 0 31 -18 23 -26 -2
-2 -16 0 -31 5 -14 6 -33 8 -41 5 -17 -7 -21 -54 -4 -54 5 0 7 -4 4 -10 -10
-17 -33 -11 -40 10 -6 19 -7 19 -23 3 -9 -9 -17 -21 -18 -27 0 -6 -2 -17 -2
-24 -3 -18 -67 -7 -98 17 -31 24 -46 27 -38 7 5 -13 -24 -31 -34 -21 -3 3 0 5
6 5 7 0 12 5 12 11 0 6 -7 9 -15 5 -8 -3 -15 -1 -15 3 0 14 -29 21 -36 9 -4
-6 -3 -8 3 -5 6 4 13 0 17 -8 3 -9 0 -15 -8 -15 -8 0 -16 -9 -19 -19 -5 -21 5
-21 53 -3 14 5 31 7 38 5 6 -3 12 2 12 11 0 9 4 16 9 16 15 0 34 -29 28 -44
-3 -7 0 -19 6 -25 15 -15 1 -27 -16 -13 -25 21 -115 -4 -92 -25 4 -5 10 -2 12
5 5 13 33 17 33 4 0 -5 14 -6 31 -4 28 4 30 2 27 -19 -3 -21 -9 -24 -57 -26
-30 -2 -60 2 -67 8 -10 8 -15 5 -20 -15 -6 -26 -13 -30 -49 -27 -41 2 -160 10
-172 10 -7 1 -13 8 -13 17 0 10 -5 14 -15 10 -13 -4 -14 -2 -5 14 9 17 7 20
-12 21 -14 0 -17 3 -8 6 8 2 22 7 30 11 16 6 28 9 48 11 7 0 11 5 8 9 -2 4 4
8 15 9 10 1 29 9 41 19 16 11 17 15 6 11 -10 -4 -18 -2 -18 4 0 7 10 9 25 5
25 -6 65 8 65 23 0 4 -23 9 -51 10 -29 1 -56 4 -60 7 -5 3 -9 0 -9 -7 0 -7 -3
-10 -6 -6 -3 3 -3 15 1 26 5 16 18 21 66 27 32 4 59 10 59 14 0 11 -102 19
-121 9 -12 -6 -18 0 -28 27 -12 32 -15 34 -59 34 -44 1 -46 2 -28 15 18 13 18
15 3 15 -10 0 -34 -7 -54 -15 -51 -21 -72 -20 -66 5 6 21 -5 28 -11 8z m712
-180 c-7 -19 -38 -22 -38 -4 0 10 9 16 21 16 12 0 19 -5 17 -12z m-461 -34
c-3 -3 -12 -4 -19 -1 -8 3 -5 6 6 6 11 1 17 -2 13 -5z m-123 -102 c3 -5 -1 -9
-9 -9 -8 0 -15 4 -15 9 0 4 4 8 9 8 6 0 12 -4 15 -8z m356 -22 c9 -6 20 -5 30
3 13 10 13 10 3 -3 -14 -18 -65 -19 -71 -2 -4 14 17 15 38 2z m-219 -43 c2 0
14 5 27 12 14 7 22 8 22 1 0 -5 -6 -10 -14 -10 -10 0 -12 -7 -9 -22 l6 -23
-26 24 c-16 14 -30 20 -39 15 -10 -6 -9 -3 1 10 10 12 16 13 21 6 4 -7 9 -12
11 -13z m149 -11 c0 -13 5 -26 12 -28 8 -3 8 -9 0 -24 -11 -18 -11 -18 -12 3
0 31 -17 38 -30 12 l-12 -21 -19 21 c-25 27 -28 26 -25 -3 2 -17 -1 -23 -11
-19 -10 4 -11 9 -2 19 6 8 7 14 2 14 -5 0 -10 7 -10 15 0 15 12 20 67 28 14 3
28 5 33 6 4 0 7 -10 7 -23z m-166 -23 c-5 -5 -12 -12 -16 -18 -4 -6 -8 -2 -8
8 0 9 7 17 17 17 9 0 12 -3 7 -7z m36 -48 c0 -8 -7 -15 -15 -15 -16 0 -20 12
-8 23 11 12 23 8 23 -8z m45 -15 c16 -17 16 -20 2 -20 -8 0 -18 6 -21 13 -3 6
-3 2 0 -10 5 -22 -9 -32 -20 -15 -7 11 4 52 14 52 4 0 15 -9 25 -20z m-55 -30
c0 -5 -5 -10 -11 -10 -5 0 -7 5 -4 10 3 6 8 10 11 10 2 0 4 -4 4 -10z m57 -56
c-3 -3 -12 -4 -19 -1 -8 3 -5 6 6 6 11 1 17 -2 13 -5z"/>
<path d="M493 773 c-13 -2 -23 -8 -23 -13 0 -5 14 -4 30 1 27 10 42 21 23 18
-5 -1 -18 -4 -30 -6z"/>
<path d="M612 767 c-8 -10 -6 -13 9 -14 10 -1 19 5 19 13 0 17 -14 18 -28 1z"/>
<path d="M1374 766 c-3 -8 -16 -17 -30 -20 -27 -7 -33 -26 -8 -26 8 0 12 5 9
10 -4 6 5 10 19 10 14 0 26 2 26 4 0 2 3 11 6 20 3 9 1 16 -5 16 -7 0 -14 -6
-17 -14z"/>
<path d="M1170 749 c0 -5 5 -7 10 -4 6 3 10 8 10 11 0 2 -4 4 -10 4 -5 0 -10
-5 -10 -11z"/>
<path d="M1394 729 c-3 -6 -1 -16 5 -22 8 -8 11 -5 11 11 0 24 -5 28 -16 11z"/>
<path d="M1130 708 c-12 -22 -12 -22 6 -6 10 10 15 20 12 24 -4 3 -12 -5 -18
-18z"/>
<path d="M1460 720 c19 -13 30 -13 30 0 0 6 -10 10 -22 10 -19 0 -20 -2 -8
-10z"/>
<path d="M960 700 c0 -5 4 -10 10 -10 5 0 7 -7 4 -15 -4 -8 -2 -15 4 -15 16 0
24 33 10 42 -18 11 -28 10 -28 -2z"/>
<path d="M95 685 c55 -15 95 -18 119 -9 36 14 0 24 -82 23 l-87 0 50 -14z"/>
<path d="M445 690 c3 -5 23 -10 43 -10 28 0 33 3 22 10 -20 13 -73 13 -65 0z"/>
<path d="M568 683 c6 -2 18 -2 25 0 6 3 1 5 -13 5 -14 0 -19 -2 -12 -5z"/>
<path d="M930 670 c0 -6 -6 -10 -14 -10 -8 0 -18 -5 -21 -11 -9 -13 27 -8 37
6 4 6 8 2 8 -7 0 -10 6 -18 14 -18 9 0 12 7 9 19 -5 20 -33 38 -33 21z"/>
<path d="M1868 673 c17 -2 47 -2 65 0 17 2 3 4 -33 4 -36 0 -50 -2 -32 -4z"/>
<path d="M1310 659 c0 -5 5 -7 10 -4 6 3 10 8 10 11 0 2 -4 4 -10 4 -5 0 -10
-5 -10 -11z"/>
<path d="M0 639 c0 -5 6 -9 13 -9 9 0 8 -3 -2 -9 -24 -15 28 -25 55 -10 19 10
27 10 36 1 7 -7 24 -12 39 -12 15 0 31 -5 35 -12 4 -7 3 -8 -4 -4 -7 4 -12 2
-12 -3 0 -6 7 -11 15 -11 13 0 17 12 14 36 0 4 5 11 13 15 8 6 -6 9 -39 10
-76 3 -77 3 -85 14 -4 5 -10 2 -14 -9 -4 -11 -9 -14 -14 -7 -8 15 -50 23 -50
10z"/>
<path d="M647 643 c-4 -3 -7 -11 -7 -17 0 -6 5 -5 12 2 6 6 9 14 7 17 -3 3 -9
2 -12 -2z"/>
<path d="M710 629 c0 -5 5 -7 10 -4 6 3 10 8 10 11 0 2 -4 4 -10 4 -5 0 -10
-5 -10 -11z"/>
<path d="M1820 623 c0 -12 3 -14 8 -6 4 6 23 13 42 16 33 4 33 4 -7 5 -35 2
-43 -1 -43 -15z"/>
<path d="M470 617 c0 -22 9 -25 35 -13 34 15 31 26 -5 26 -18 0 -30 -5 -30
-13z"/>
<path d="M1890 610 l-55 -7 63 -1 c36 -1 62 2 62 8 0 6 -3 9 -7 8 -5 -1 -33
-4 -63 -8z"/>
<path d="M1630 580 c0 -5 5 -10 10 -10 6 0 10 5 10 10 0 6 -4 10 -10 10 -5 0
-10 -4 -10 -10z"/>
<path d="M5 560 c-3 -5 -2 -10 4 -10 5 0 13 5 16 10 3 6 2 10 -4 10 -5 0 -13
-4 -16 -10z"/>
<path d="M68 559 c-7 -4 -6 -8 2 -11 17 -5 -17 -78 -36 -78 -21 0 -17 21 6 27
11 3 20 10 20 15 0 5 -4 6 -10 3 -5 -3 -10 3 -10 14 0 12 -5 21 -11 21 -6 0
-9 -7 -5 -15 3 -8 1 -15 -3 -15 -5 0 -11 4 -13 10 -2 5 -4 -25 -5 -68 -1 -44
2 -66 6 -52 8 28 39 37 70 20 14 -7 21 -7 21 -1 0 6 6 8 13 5 7 -2 19 7 27 21
7 14 17 25 22 25 4 0 8 7 8 15 0 8 5 15 10 15 6 0 10 10 9 23 0 12 -3 16 -6
10 -3 -10 -10 -9 -27 2 -12 8 -26 12 -29 8 -4 -3 -7 -1 -7 5 0 11 -33 12 -52
1z m87 -48 c3 -5 2 -12 -3 -15 -5 -3 -9 1 -9 9 0 17 3 19 12 6z m-31 -17 c4
-9 4 -19 1 -22 -3 -3 -5 0 -5 7 0 9 -9 11 -27 7 -27 -6 -27 -6 -9 9 25 19 32
19 40 -1z"/>
<path d="M1665 550 c3 -5 8 -10 11 -10 2 0 4 5 4 10 0 6 -5 10 -11 10 -5 0 -7
-4 -4 -10z"/>
<path d="M1840 535 c0 -8 4 -15 10 -15 5 0 7 7 4 15 -4 8 -8 15 -10 15 -2 0
-4 -7 -4 -15z"/>
<path d="M2020 525 c5 -13 6 -26 3 -29 -4 -3 6 -6 22 -6 27 0 28 0 10 20 -10
11 -15 23 -11 27 4 4 11 1 16 -7 8 -13 10 -12 10 2 0 12 -8 16 -29 16 -26 -1
-28 -3 -21 -23z"/>
<path d="M822 520 c-10 -17 -10 -21 3 -25 8 -3 22 -7 30 -10 8 -2 17 0 20 5 4
6 -3 10 -14 10 -12 0 -21 8 -23 20 l-3 21 -13 -21z"/>
<path d="M709 510 c-1 -17 -3 -19 -6 -8 -4 14 -8 15 -24 5 -25 -16 -24 -27 4
-27 36 0 51 14 38 36 -9 17 -11 17 -12 -6z"/>
<path d="M1742 513 c-11 -11 -11 -17 -2 -28 7 -8 10 -26 8 -40 -4 -20 -1 -25
16 -25 17 0 22 7 24 30 2 25 -1 30 -19 30 -16 0 -19 3 -11 13 16 19 0 38 -16
20z"/>
<path d="M2560 515 c0 -8 5 -15 11 -15 5 0 8 -4 4 -9 -3 -5 -1 -12 4 -15 5 -3
11 2 14 13 2 11 -3 23 -14 30 -15 9 -19 8 -19 -4z"/>
<path d="M1182 503 c-6 -2 -10 -9 -6 -14 3 -5 0 -9 -5 -9 -6 0 -11 -6 -11 -12
1 -7 9 -3 19 9 10 12 21 19 25 16 3 -4 6 -1 6 5 0 13 -7 14 -28 5z"/>
<path d="M1868 503 c12 -2 30 -2 40 0 9 3 -1 5 -23 4 -22 0 -30 -2 -17 -4z"/>
<path d="M763 493 c-31 -6 -29 -18 2 -21 16 -1 25 3 25 13 0 8 -1 14 -2 14 -2
-1 -13 -4 -25 -6z"/>
<path d="M1261 491 c-8 -5 -9 -11 -3 -15 5 -3 15 1 22 9 14 16 3 20 -19 6z"/>
<path d="M1385 469 c-4 -6 -5 -12 -2 -15 2 -3 7 2 10 11 7 17 1 20 -8 4z"/>
<path d="M1925 470 c-3 -5 -2 -10 4 -10 5 0 13 5 16 10 3 6 2 10 -4 10 -5 0
-13 -4 -16 -10z"/>
<path d="M1981 448 c-10 -18 -11 -20 0 -10 16 15 33 16 23 0 -4 -7 -3 -8 5 -4
9 6 9 11 0 22 -14 17 -12 18 -28 -8z"/>
<path d="M1209 449 c14 -6 28 -6 33 -1 5 5 -5 9 -24 10 -31 0 -31 -1 -9 -9z"/>
<path d="M1177 439 c7 -7 15 -10 18 -7 3 3 -2 9 -12 12 -14 6 -15 5 -6 -5z"/>
<path d="M1920 440 c-15 -5 -18 -8 -9 -9 9 -1 20 -8 23 -17 4 -11 2 -15 -7
-11 -8 3 -13 -3 -13 -19 0 -29 16 -32 23 -4 3 11 9 20 14 20 5 0 9 5 9 11 0 5
-4 7 -10 4 -14 -9 -13 8 2 23 13 13 5 14 -32 2z"/>
<path d="M1357 433 c-3 -5 1 -13 7 -19 9 -9 19 -8 37 3 13 8 16 12 7 9 -10 -3
-18 -1 -18 4 0 12 -27 13 -33 3z"/>
<path d="M1865 430 c-3 -6 1 -7 9 -4 18 7 21 14 7 14 -6 0 -13 -4 -16 -10z"/>
<path d="M1130 415 c-7 -9 -11 -17 -9 -20 3 -2 10 5 17 15 14 24 10 26 -8 5z"/>
<path d="M1255 420 c-8 -13 5 -13 25 0 13 8 13 10 -2 10 -9 0 -20 -4 -23 -10z"/>
<path d="M1294 413 c-10 -7 -13 -13 -7 -13 7 0 15 5 18 10 4 6 10 8 15 5 5 -3
11 -2 14 3 8 13 -19 10 -40 -5z"/>
<path d="M1875 410 c-3 -5 1 -10 10 -10 9 0 13 5 10 10 -3 6 -8 10 -10 10 -2
0 -7 -4 -10 -10z"/>
<path d="M47 395 c-9 -23 11 -28 23 -5 8 16 8 20 -4 20 -7 0 -16 -7 -19 -15z"/>
<path d="M1168 403 c6 -2 18 -2 25 0 6 3 1 5 -13 5 -14 0 -19 -2 -12 -5z"/>
<path d="M1690 401 c0 -5 5 -13 10 -16 6 -3 10 -2 10 4 0 5 -4 13 -10 16 -5 3
-10 2 -10 -4z"/>
<path d="M1970 395 c-7 -9 -10 -18 -7 -21 10 -11 37 5 37 21 0 19 -14 19 -30
0z"/>
<path d="M377 370 c4 -16 8 -18 19 -9 8 6 14 14 14 17 0 3 -3 2 -7 -1 -3 -4
-12 -2 -19 4 -9 8 -11 5 -7 -11z"/>
<path d="M1645 380 c-23 -4 -30 -11 -31 -27 -1 -27 13 -31 18 -5 2 10 6 13 10
6 4 -6 -6 -25 -22 -43 -17 -18 -30 -37 -30 -43 0 -6 -9 -8 -19 -5 -14 3 -18 1
-14 -9 3 -8 10 -11 16 -7 6 3 7 1 3 -6 -4 -6 -12 -9 -17 -6 -15 10 -23 -26 -8
-36 12 -8 12 -11 -1 -19 -12 -8 -11 -10 7 -10 16 0 21 4 17 15 -4 10 0 15 10
15 12 0 15 -6 10 -24 -4 -16 -1 -25 10 -29 12 -5 16 0 16 16 l1 22 18 -22 c24
-29 96 -39 106 -15 6 16 7 16 16 -1 6 -10 15 -14 22 -10 7 4 24 6 39 4 23 -2
27 1 22 16 -6 17 -6 17 8 -1 11 -14 22 -17 41 -12 39 9 35 43 -5 37 -3 0 0 13
8 29 12 23 13 33 2 49 -7 11 -10 22 -7 25 5 6 43 7 98 3 22 -1 36 3 39 11 3
11 0 12 -17 2 -17 -9 -26 -9 -37 1 -8 6 -14 8 -14 3 0 -5 -4 -3 -8 4 -7 10
-16 9 -46 -3 -21 -9 -35 -11 -31 -5 3 5 -2 13 -12 16 -10 3 -26 10 -35 15 -25
13 -32 11 -19 -5 9 -11 7 -13 -11 -11 -32 3 -32 3 -18 20 20 25 4 45 -35 45
-26 0 -34 -3 -28 -12 4 -8 -2 -7 -17 2 -15 10 -37 14 -55 10z m65 -66 c0 -8 0
-17 0 -21 0 -5 -6 -8 -12 -8 -7 0 -13 12 -14 27 -1 18 3 25 13 21 7 -3 13 -11
13 -19z m-40 -13 c0 -6 -4 -12 -8 -15 -5 -3 -9 1 -9 9 0 8 4 15 9 15 4 0 8 -4
8 -9z m120 -6 c6 3 7 -1 3 -10 -3 -10 0 -21 7 -25 8 -5 9 -9 1 -14 -6 -4 -11
-2 -11 3 0 6 -7 11 -15 11 -8 0 -15 6 -15 13 0 8 -3 8 -9 -2 -7 -10 -9 -7 -8
11 2 22 5 24 20 17 9 -6 22 -7 27 -4z m67 9 c-3 -4 0 -16 8 -27 11 -15 12 -24
3 -34 -13 -16 -48 -17 -48 -2 0 6 8 9 19 6 12 -3 18 1 17 12 0 9 -5 19 -10 22
-9 7 0 29 11 29 4 0 3 -3 0 -6z m-227 -65 c-6 -11 -15 -17 -20 -14 -6 4 -5 14
2 25 16 24 31 15 18 -11z m112 -21 c-9 -9 -12 -7 -12 12 0 19 3 21 12 12 9 -9
9 -15 0 -24z m-59 7 c-3 -9 -8 -14 -10 -11 -3 3 -2 9 2 15 9 16 15 13 8 -4z
m32 -5 c-3 -5 -11 -10 -16 -10 -6 0 -7 5 -4 10 3 6 11 10 16 10 6 0 7 -4 4
-10z m-47 -46 c-4 -3 -16 1 -28 9 -15 11 -18 16 -8 20 15 5 45 -19 36 -29z
m62 18 c0 -4 -9 -13 -20 -20 -24 -15 -26 -9 -4 12 17 18 24 20 24 8z m15 -22
c-3 -5 -12 -10 -18 -10 -7 0 -6 4 3 10 19 12 23 12 15 0z m45 -4 c0 -3 -4 -8
-10 -11 -5 -3 -10 -1 -10 4 0 6 5 11 10 11 6 0 10 -2 10 -4z"/>
<path d="M2011 374 c0 -11 3 -14 6 -6 3 7 2 16 -1 19 -3 4 -6 -2 -5 -13z"/>
<path d="M158 348 c3 -21 7 -26 13 -17 13 20 11 36 -4 42 -10 4 -12 -3 -9 -25z"/>
<path d="M197 364 c-12 -13 -8 -41 9 -55 12 -10 20 -10 34 -1 14 9 20 8 24 -1
3 -7 3 -2 0 11 -6 24 13 31 34 10 15 -15 16 -31 0 -22 -7 4 -8 3 -4 -5 4 -6
11 -9 15 -7 12 8 11 65 -1 72 -7 5 -9 2 -6 -7 4 -10 -3 -14 -23 -14 -29 0 -38
9 -19 18 6 3 5 4 -2 3 -7 -2 -12 -12 -11 -24 2 -20 -21 -37 -38 -26 -5 3 -9
14 -9 26 0 18 2 19 17 7 14 -12 16 -12 12 0 -6 17 -22 24 -32 15z"/>
<path d="M335 359 c-4 -6 -4 -13 0 -17 3 -3 10 0 15 8 7 11 10 8 11 -15 0 -25
2 -26 8 -10 8 19 8 19 19 0 7 -12 12 -14 12 -7 0 13 -38 51 -52 52 -4 0 -10
-5 -13 -11z"/>
<path d="M1848 353 c7 -3 16 -2 19 1 4 3 -2 6 -13 5 -11 0 -14 -3 -6 -6z"/>
<path d="M1565 310 c-3 -6 1 -7 9 -4 18 7 21 14 7 14 -6 0 -13 -4 -16 -10z"/>
<path d="M2170 292 c-11 -5 -14 -16 -9 -42 4 -19 7 -27 8 -17 0 10 6 15 12 12
6 -4 8 -14 5 -22 -3 -8 -1 -11 4 -8 6 3 10 15 10 25 0 13 5 17 15 14 9 -4 15
0 15 10 0 19 -21 21 -38 4 -7 -7 -12 -8 -12 -2 0 6 5 15 12 22 13 13 2 15 -22
4z"/>
<path d="M2252 264 c-9 -10 -10 -14 -1 -14 7 0 5 -8 -6 -20 -10 -11 -22 -17
-26 -14 -5 3 -9 0 -9 -5 0 -13 10 -14 30 -1 9 5 19 5 26 -1 8 -7 10 -2 6 16
-6 33 14 33 40 0 11 -14 24 -25 30 -25 5 0 -3 14 -19 30 -15 17 -33 30 -40 30
-6 0 -13 4 -15 9 -1 5 -9 3 -16 -5z"/>
<path d="M2345 269 c-4 -6 -5 -12 -2 -15 7 -7 37 7 37 17 0 13 -27 11 -35 -2z"/>
<path d="M2393 257 c-30 -33 -35 -45 -22 -53 7 -4 9 -3 6 2 -3 6 -1 16 4 24 7
12 11 13 18 2 6 -10 10 -6 14 15 7 36 5 38 -20 10z"/>
<path d="M1605 50 c-13 -5 -14 -9 -5 -9 8 0 24 4 35 9 13 5 14 9 5 9 -8 0 -24
-4 -35 -9z"/>
<path d="M7 3 c7 -2 19 -2 26 0 6 3 1 5 -13 5 -14 0 -19 -2 -13 -5z"/>
</g>
</svg>
